<svg width="25" height="25" viewBox="0 0 25 25" fill="none" xmlns="http://www.w3.org/2000/svg">
<path d="M18.75 19.2709C18.3356 19.2709 17.9382 19.1062 17.6452 18.8132C17.3521 18.5202 17.1875 18.1228 17.1875 17.7084C17.1875 17.294 17.3521 16.8965 17.6452 16.6035C17.9382 16.3105 18.3356 16.1459 18.75 16.1459C19.1644 16.1459 19.5618 16.3105 19.8549 16.6035C20.1479 16.8965 20.3125 17.294 20.3125 17.7084C20.3125 18.1228 20.1479 18.5202 19.8549 18.8132C19.5618 19.1062 19.1644 19.2709 18.75 19.2709ZM20.3125 9.89585L22.3542 12.5H17.7083V9.89585M6.25 19.2709C5.8356 19.2709 5.43818 19.1062 5.14515 18.8132C4.85212 18.5202 4.68751 18.1228 4.68751 17.7084C4.68751 17.294 4.85212 16.8965 5.14515 16.6035C5.43818 16.3105 5.8356 16.1459 6.25 16.1459C6.66441 16.1459 7.06183 16.3105 7.35486 16.6035C7.64788 16.8965 7.8125 17.294 7.8125 17.7084C7.8125 18.1228 7.64788 18.5202 7.35486 18.8132C7.06183 19.1062 6.66441 19.2709 6.25 19.2709ZM20.8333 8.33335H17.7083V4.16669H3.12501C1.96876 4.16669 1.04167 5.09377 1.04167 6.25002V17.7084H3.12501C3.12501 18.5372 3.45425 19.332 4.0403 19.9181C4.62635 20.5041 5.4212 20.8334 6.25 20.8334C7.07881 20.8334 7.87366 20.5041 8.45971 19.9181C9.04576 19.332 9.375 18.5372 9.375 17.7084H15.625C15.625 18.5372 15.9542 19.332 16.5403 19.9181C17.1263 20.5041 17.9212 20.8334 18.75 20.8334C19.5788 20.8334 20.3737 20.5041 20.9597 19.9181C21.5458 19.332 21.875 18.5372 21.875 17.7084H23.9583V12.5L20.8333 8.33335Z" fill="#F7DA24"/>
</svg>
