<svg width="25" height="24" viewBox="0 0 25 24" fill="none" xmlns="http://www.w3.org/2000/svg">
<path fill-rule="evenodd" clip-rule="evenodd" d="M12.5 2.00003C14.433 2.00003 16 3.56706 16 5.50005C16 7.36858 14.5357 8.89515 12.692 8.99486L12.5 9.00002C10.567 9.00002 8.99998 7.43298 8.99998 5.50005C8.99998 3.63147 10.4643 2.10489 12.3079 2.00519L12.5 2.00003ZM12.5 10C16.4511 10 19.8232 12.8566 20.4728 16.754L20.9864 19.8356C21.1818 21.0078 19.534 21.4816 19.0769 20.3846L18.1235 18.0964C17.2733 20.3763 15.0762 22 12.5 22C9.92375 22 7.72671 20.3763 6.87645 18.0964L5.9231 20.3846C5.46607 21.4816 3.81828 21.0078 4.01365 19.8356L4.52726 16.754C5.17671 12.8566 8.54881 10 12.5 10ZM11.7499 19.9298V17.8547C11.149 17.6114 10.6932 17.0845 10.5485 16.44L8.50132 16.1041C8.54998 18.0104 9.93228 19.585 11.7499 19.9299M16.4987 16.1041L14.4514 16.44C14.3068 17.0845 13.851 17.6114 13.25 17.8547V19.9299C15.0677 19.585 16.45 18.0104 16.4987 16.1041ZM12.5 12C10.7745 12 9.30429 13.0925 8.74315 14.6235L10.7918 14.9592C11.1431 14.384 11.7767 14 12.4999 14C13.2232 14 13.8568 14.3839 14.2081 14.9591L16.2568 14.6235C15.7125 13.1383 14.3126 12.0658 12.6541 12.003L12.5 12Z" fill="white"/>
</svg>
