<svg width="25" height="25" viewBox="0 0 25 25" fill="none" xmlns="http://www.w3.org/2000/svg">
<path d="M16.6667 17.7083V19.7917H2.08333V17.7083C2.08333 17.7083 2.08333 13.5417 9.37499 13.5417C16.6667 13.5417 16.6667 17.7083 16.6667 17.7083ZM13.0208 7.8125C13.0208 7.09142 12.807 6.38654 12.4064 5.78698C12.0058 5.18743 11.4364 4.72013 10.7702 4.44419C10.104 4.16824 9.37095 4.09604 8.66373 4.23672C7.95651 4.37739 7.30688 4.72463 6.797 5.2345C6.28712 5.74438 5.93989 6.39401 5.79922 7.10123C5.65854 7.80845 5.73074 8.54151 6.00668 9.2077C6.28263 9.87389 6.74992 10.4433 7.34948 10.8439C7.94903 11.2445 8.65392 11.4583 9.37499 11.4583C10.3419 11.4583 11.2693 11.0742 11.953 10.3905C12.6367 9.70676 13.0208 8.77943 13.0208 7.8125ZM16.6042 13.5417C17.2445 14.0372 17.7685 14.6671 18.1392 15.387C18.51 16.1069 18.7184 16.8992 18.75 17.7083V19.7917H22.9167V17.7083C22.9167 17.7083 22.9167 13.9271 16.6042 13.5417ZM15.625 4.16666C14.9081 4.16333 14.2071 4.37763 13.6146 4.78125C14.2473 5.66535 14.5876 6.7253 14.5876 7.8125C14.5876 8.8997 14.2473 9.95965 13.6146 10.8437C14.2071 11.2474 14.9081 11.4617 15.625 11.4583C16.5919 11.4583 17.5193 11.0742 18.203 10.3905C18.8867 9.70676 19.2708 8.77943 19.2708 7.8125C19.2708 6.84556 18.8867 5.91823 18.203 5.2345C17.5193 4.55078 16.5919 4.16666 15.625 4.16666Z" fill="#F7DA24"/>
</svg>
