<svg width="25" height="24" viewBox="0 0 25 24" fill="none" xmlns="http://www.w3.org/2000/svg">
<path fill-rule="evenodd" clip-rule="evenodd" d="M1.75 7C1.75 6.80109 1.82902 6.61032 1.96967 6.46967C2.11032 6.32902 2.30109 6.25 2.5 6.25H10.5C10.6989 6.25 10.8897 6.32902 11.0303 6.46967C11.171 6.61032 11.25 6.80109 11.25 7C11.25 7.19891 11.171 7.38968 11.0303 7.53033C10.8897 7.67098 10.6989 7.75 10.5 7.75H2.5C2.30109 7.75 2.11032 7.67098 1.96967 7.53033C1.82902 7.38968 1.75 7.19891 1.75 7ZM1.75 12C1.75 11.8011 1.82902 11.6103 1.96967 11.4697C2.11032 11.329 2.30109 11.25 2.5 11.25H8.5C8.69891 11.25 8.88968 11.329 9.03033 11.4697C9.17098 11.6103 9.25 11.8011 9.25 12C9.25 12.1989 9.17098 12.3897 9.03033 12.5303C8.88968 12.671 8.69891 12.75 8.5 12.75H2.5C2.30109 12.75 2.11032 12.671 1.96967 12.5303C1.82902 12.3897 1.75 12.1989 1.75 12ZM1.75 17C1.75 16.8011 1.82902 16.6103 1.96967 16.4697C2.11032 16.329 2.30109 16.25 2.5 16.25H10.5C10.6989 16.25 10.8897 16.329 11.0303 16.4697C11.171 16.6103 11.25 16.8011 11.25 17C11.25 17.1989 11.171 17.3897 11.0303 17.5303C10.8897 17.671 10.6989 17.75 10.5 17.75H2.5C2.30109 17.75 2.11032 17.671 1.96967 17.5303C1.82902 17.3897 1.75 17.1989 1.75 17ZM17.5 17C18.8261 17 20.0979 16.4732 21.0355 15.5355C21.9732 14.5979 22.5 13.3261 22.5 12C22.5 10.6739 21.9732 9.40215 21.0355 8.46447C20.0979 7.52678 18.8261 7 17.5 7C16.1739 7 14.9021 7.52678 13.9645 8.46447C13.0268 9.40215 12.5 10.6739 12.5 12C12.5 13.3261 13.0268 14.5979 13.9645 15.5355C14.9021 16.4732 16.1739 17 17.5 17ZM18.25 10C18.25 9.80109 18.171 9.61032 18.0303 9.46967C17.8897 9.32902 17.6989 9.25 17.5 9.25C17.3011 9.25 17.1103 9.32902 16.9697 9.46967C16.829 9.61032 16.75 9.80109 16.75 10V11.846C16.75 12.026 16.815 12.201 16.933 12.337L17.933 13.491C17.9975 13.5655 18.076 13.6265 18.1641 13.6706C18.2521 13.7147 18.348 13.7411 18.4463 13.7481C18.5445 13.7552 18.6432 13.7428 18.7366 13.7117C18.8301 13.6807 18.9165 13.6315 18.991 13.567C19.0655 13.5025 19.1265 13.424 19.1706 13.3359C19.2147 13.2479 19.2411 13.152 19.2481 13.0537C19.2552 12.9555 19.2428 12.8568 19.2117 12.7634C19.1807 12.6699 19.1315 12.5835 19.067 12.509L18.25 11.566V10Z" fill="white"/>
</svg>
