<svg width="25" height="25" viewBox="0 0 25 25" fill="none" xmlns="http://www.w3.org/2000/svg">
<path fill-rule="evenodd" clip-rule="evenodd" d="M5.46875 1.5625C5.26155 1.5625 5.06284 1.64481 4.91632 1.79132C4.76981 1.93784 4.6875 2.13655 4.6875 2.34375V22.6562C4.6875 22.8635 4.76981 23.0622 4.91632 23.2087C5.06284 23.3552 5.26155 23.4375 5.46875 23.4375H19.5312C19.7385 23.4375 19.9372 23.3552 20.0837 23.2087C20.2302 23.0622 20.3125 22.8635 20.3125 22.6562V2.34375C20.3125 2.13655 20.2302 1.93784 20.0837 1.79132C19.9372 1.64481 19.7385 1.5625 19.5312 1.5625H5.46875ZM17.1875 8.59375H7.8125V7.03125H17.1875V8.59375ZM17.1875 13.2812H7.8125V11.7188H17.1875V13.2812ZM7.8125 17.9688H14.0625V16.4062H7.8125V17.9688Z" fill="#F7DA24"/>
</svg>
