<svg width="26" height="25" viewBox="0 0 26 25" fill="none" xmlns="http://www.w3.org/2000/svg">
<g clip-path="url(#clip0_8_55)">
<path fill-rule="evenodd" clip-rule="evenodd" d="M10.2328 0.310935C11.9551 -0.0800219 13.7406 -0.101588 15.4718 0.247658C17.203 0.596904 18.8406 1.30903 20.2766 2.33712C21.7126 3.36522 22.9144 4.68593 23.8029 6.21224C24.6914 7.73855 25.2464 9.43581 25.4312 11.1922C25.4638 11.5013 25.3722 11.8107 25.1766 12.0523C24.981 12.2939 24.6974 12.4479 24.3883 12.4805C24.0791 12.513 23.7697 12.4214 23.5281 12.2258C23.2865 12.0302 23.1325 11.7466 23.1 11.4375C22.8991 9.5291 22.1617 7.71665 20.9732 6.21009C19.7846 4.70354 18.1936 3.56452 16.3844 2.92499C14.5751 2.28545 12.6217 2.17156 10.7504 2.59651C8.87913 3.02146 7.16651 3.96787 5.81094 5.32609C4.45538 6.68432 3.51234 8.39879 3.09106 10.2709C2.66978 12.143 2.7875 14.0962 3.43058 15.9042C4.07366 17.7122 5.21579 19.301 6.72468 20.4866C8.23356 21.6721 10.0475 22.406 11.9562 22.6031C12.1104 22.6175 12.2603 22.6623 12.397 22.7349C12.5338 22.8076 12.6549 22.9066 12.7531 23.0263C12.8514 23.146 12.925 23.2839 12.9696 23.4322C13.0142 23.5805 13.029 23.7362 13.0131 23.8903C12.9972 24.0443 12.951 24.1937 12.877 24.3297C12.803 24.4658 12.7028 24.5858 12.5821 24.6829C12.4615 24.78 12.3228 24.8522 12.174 24.8954C12.0253 24.9385 11.8695 24.9518 11.7156 24.9344C8.76705 24.631 6.02224 23.2897 3.9711 21.1498C1.91996 19.01 0.695977 16.2109 0.517625 13.2521C0.339273 10.2934 1.21816 7.36751 2.9974 4.99678C4.77665 2.62605 7.34047 0.964739 10.2312 0.309373L10.2328 0.310935ZM13 4.6875C13.3108 4.6875 13.6089 4.81096 13.8286 5.03073C14.0484 5.2505 14.1719 5.54857 14.1719 5.85937V14.0625H7.92187C7.61107 14.0625 7.313 13.939 7.09323 13.7193C6.87346 13.4995 6.74999 13.2014 6.74999 12.8906C6.74999 12.5798 6.87346 12.2818 7.09323 12.062C7.313 11.8422 7.61107 11.7187 7.92187 11.7187H11.8281V5.85937C11.8281 5.54857 11.9516 5.2505 12.1714 5.03073C12.3911 4.81096 12.6892 4.6875 13 4.6875ZM16.4687 15.9687C16.6885 15.7493 16.9863 15.626 17.2969 15.626C17.6074 15.626 17.9053 15.7493 18.125 15.9687L20.8125 18.6562L23.5 15.9687C23.6073 15.8536 23.7367 15.7613 23.8804 15.6972C24.0242 15.6332 24.1793 15.5987 24.3367 15.5959C24.494 15.5932 24.6503 15.6221 24.7962 15.6811C24.9422 15.74 25.0747 15.8277 25.186 15.939C25.2973 16.0503 25.385 16.1828 25.4439 16.3288C25.5029 16.4747 25.5318 16.631 25.529 16.7883C25.5263 16.9457 25.4918 17.1008 25.4278 17.2446C25.3637 17.3883 25.2714 17.5177 25.1562 17.625L22.4687 20.3125L25.1562 23C25.2714 23.1073 25.3637 23.2367 25.4278 23.3804C25.4918 23.5242 25.5263 23.6793 25.529 23.8367C25.5318 23.994 25.5029 24.1503 25.4439 24.2962C25.385 24.4422 25.2973 24.5747 25.186 24.686C25.0747 24.7973 24.9422 24.885 24.7962 24.9439C24.6503 25.0029 24.494 25.0318 24.3367 25.029C24.1793 25.0263 24.0242 24.9918 23.8804 24.9278C23.7367 24.8637 23.6073 24.7714 23.5 24.6562L20.8125 21.9687L18.125 24.6562C18.0177 24.7714 17.8883 24.8637 17.7446 24.9278C17.6008 24.9918 17.4457 25.0263 17.2883 25.029C17.131 25.0318 16.9747 25.0029 16.8287 24.9439C16.6828 24.885 16.5503 24.7973 16.439 24.686C16.3277 24.5747 16.24 24.4422 16.1811 24.2962C16.1221 24.1503 16.0932 23.994 16.0959 23.8367C16.0987 23.6793 16.1332 23.5242 16.1972 23.3804C16.2613 23.2367 16.3536 23.1073 16.4687 23L19.1562 20.3125L16.4687 17.625C16.2493 17.4053 16.126 17.1074 16.126 16.7969C16.126 16.4863 16.2493 16.1885 16.4687 15.9687Z" fill="white"/>
</g>
<defs>
<clipPath id="clip0_8_55">
<rect width="25" height="25" fill="white" transform="translate(0.5)"/>
</clipPath>
</defs>
</svg>
