<svg width="24" height="24" viewBox="0 0 24 24" fill="none" xmlns="http://www.w3.org/2000/svg">
<path d="M20.5 12C20.5 7.8 20.362 5.254 20.2315 3.782C20.133 2.6785 19.3225 1.856 18.22 1.747C16.968 1.623 14.976 1.5 12 1.5C9.024 1.5 7.032 1.623 5.78 1.747C4.6775 1.856 3.867 2.6785 3.769 3.782C3.638 5.2535 3.5 7.8 3.5 12M20.5 12C20.5 16.2 20.362 18.7465 20.2315 20.2175C20.133 21.3215 19.3225 22.144 18.22 22.253C16.968 22.377 14.976 22.5 12 22.5C9.024 22.5 7.032 22.377 5.78 22.253C4.6775 22.144 3.867 21.3215 3.769 20.218C3.638 18.7465 3.5 16.2 3.5 12M20.5 12H3.5M7.5 6V8M7.5 16V18" stroke="black" stroke-width="1.5" stroke-linecap="round" stroke-linejoin="round"/>
</svg>
