<svg width="25" height="25" viewBox="0 0 25 25" fill="none" xmlns="http://www.w3.org/2000/svg">
<path d="M14.1875 8.73126L16.2354 6.68231C15.9931 6.44009 15.8143 6.14186 15.7148 5.81404C15.6153 5.48621 15.5982 5.13891 15.665 4.80288C15.7317 4.46686 15.8803 4.15249 16.0976 3.88762C16.3149 3.62274 16.5942 3.41554 16.9107 3.28437C17.2271 3.1532 17.5711 3.10209 17.912 3.13559C18.253 3.16909 18.5804 3.28616 18.8653 3.47642C19.1502 3.66669 19.3838 3.92427 19.5454 4.22637C19.707 4.52847 19.7916 4.86575 19.7917 5.20835C20.1343 5.2081 20.4718 5.29239 20.7741 5.45375C21.0764 5.61511 21.3343 5.84855 21.5248 6.13338C21.7153 6.41822 21.8326 6.74565 21.8664 7.08667C21.9001 7.42769 21.8492 7.77176 21.7181 8.0884C21.5871 8.40503 21.3799 8.68445 21.1151 8.90189C20.8502 9.11933 20.5358 9.26808 20.1997 9.33496C19.8636 9.40183 19.5162 9.38477 19.1883 9.28528C18.8604 9.18579 18.5621 9.00695 18.3198 8.7646L16.424 10.6615M7.8125 16.6667L8.85416 17.7083M6.15 19.3708C8.99687 22.2188 12.2958 23.5375 13.5146 22.3177C14.7354 21.0969 13.4167 17.799 10.5687 14.9521C7.72187 12.1042 4.42291 10.7854 3.20416 12.0052C1.98333 13.2261 3.30208 16.524 6.15 19.3708Z" stroke="#F7DA24" stroke-width="2.08333" stroke-linecap="round" stroke-linejoin="round"/>
<path d="M13.5156 22.3177C17.5833 18.249 18.5729 12.6427 15.725 9.79586C12.8781 6.94795 7.27187 7.93753 3.20416 12.0052" stroke="#F7DA24" stroke-width="2.08333" stroke-linecap="round" stroke-linejoin="round"/>
</svg>
