<?xml version="1.0" encoding="UTF-8"?>
<svg version="1.1" xmlns="http://www.w3.org/2000/svg" width="247" height="64">
<path d="M0 0 C2.26511996 0.68912312 2.26511996 0.68912312 5.640625 -0.00390625 C10.28600452 -0.60453634 14.79661234 -0.37521858 19.453125 -0.06640625 C25.62480668 0.33168418 31.76766476 0.61359374 37.953125 0.62109375 C38.68144531 0.62262451 39.40976563 0.62415527 40.16015625 0.62573242 C44.21188842 0.60311439 48.22497196 0.43299357 52.265625 0.12890625 C53.13195557 0.06687012 53.99828613 0.00483398 54.89086914 -0.05908203 C56.5661253 -0.18646216 58.24009321 -0.33251711 59.91186523 -0.49951172 C62.19921875 -0.67578125 62.19921875 -0.67578125 66.015625 -0.50390625 C68.82947942 1.96706069 68.9865593 3.10370685 69.265625 6.87109375 C69.03962447 10.14810149 68.57772266 13.2640322 68.015625 16.49609375 C67.97940167 18.16236673 67.96662658 19.83014749 68.015625 21.49609375 C69.665625 21.49609375 71.315625 21.49609375 73.015625 21.49609375 C72.78875 20.38234375 72.561875 19.26859375 72.328125 18.12109375 C71.60445901 12.40311322 72.95895421 6.5081213 76.2265625 1.72265625 C78.92024082 -0.12410138 81.16494749 0.13561457 84.390625 0.18359375 C86.07285156 0.18939453 86.07285156 0.18939453 87.7890625 0.1953125 C90.92704536 0.48783633 93.18036311 1.16341447 96.015625 2.49609375 C96.015625 1.50609375 96.015625 0.51609375 96.015625 -0.50390625 C97.93197717 -0.55814263 99.84877425 -0.59680588 101.765625 -0.62890625 C103.36664063 -0.66371094 103.36664063 -0.66371094 105 -0.69921875 C107.99162571 -0.50546061 109.42812119 0.13125658 112.015625 1.49609375 C114.02023799 0.84342906 116.01942334 0.17404903 118.015625 -0.50390625 C122.18335743 -0.84061713 126.1482316 -0.65403203 130.265625 0.05859375 C132.98462626 0.66506998 132.98462626 0.66506998 135.515625 -0.06640625 C138.81267642 -0.64339025 140.9264321 0.32906532 144.015625 1.49609375 C144.675625 1.49609375 145.335625 1.49609375 146.015625 1.49609375 C146.345625 1.16609375 146.675625 0.83609375 147.015625 0.49609375 C152.91547049 -0.44947968 158.67384298 -0.66244049 164.640625 -0.62890625 C165.51074219 -0.62552246 166.38085938 -0.62213867 167.27734375 -0.61865234 C188.02616612 -0.45440357 188.02616612 -0.45440357 193.015625 2.49609375 C193.17450302 6.90495877 192.65088718 10.61386059 191.515625 14.87109375 C191.2371875 15.93070313 190.95875 16.9903125 190.671875 18.08203125 C190.4553125 18.87867187 190.23875 19.6753125 190.015625 20.49609375 C191.995625 21.48609375 193.975625 22.47609375 196.015625 23.49609375 C196.04450646 26.80857562 196.06238299 30.12102542 196.078125 33.43359375 C196.08650391 34.37912109 196.09488281 35.32464844 196.10351562 36.29882812 C196.10673828 37.19794922 196.10996094 38.09707031 196.11328125 39.0234375 C196.11851807 39.85609131 196.12375488 40.68874512 196.12915039 41.54663086 C196.015625 43.49609375 196.015625 43.49609375 195.015625 44.49609375 C192.12043911 44.59404553 189.24910421 44.62601468 186.35350037 44.61634827 C184.97401981 44.6176299 184.97401981 44.6176299 183.56667095 44.61893743 C180.46036223 44.62059505 177.35410655 44.61506627 174.24780273 44.60961914 C172.03093466 44.6093373 169.8140665 44.60949493 167.59719849 44.61006165 C161.55818599 44.61034976 155.51919317 44.60445085 149.48018527 44.59748769 C143.17673767 44.59125639 136.87328968 44.59065053 130.56983948 44.58946228 C119.98316105 44.58670258 109.39648911 44.58044707 98.80981445 44.5715332 C87.90356482 44.56235978 76.99731716 44.55527861 66.09106445 44.55102539 C65.41925317 44.55076267 64.74744189 44.55049994 64.05527269 44.55022926 C60.68512731 44.54892426 57.31498191 44.54766054 53.9448365 44.54641736 C25.96842761 44.53595146 -2.00797319 44.51835073 -29.984375 44.49609375 C-31.18535572 40.98898298 -32.23067369 37.85854309 -32.43359375 34.1484375 C-32.47677734 33.37822266 -32.51996094 32.60800781 -32.56445312 31.81445312 C-32.59990234 31.02876953 -32.63535156 30.24308594 -32.671875 29.43359375 C-32.71892578 28.64404297 -32.76597656 27.85449219 -32.81445312 27.04101562 C-33.20993307 19.30646521 -33.20993307 19.30646521 -31.984375 15.49609375 C-31.324375 15.16609375 -30.664375 14.83609375 -29.984375 14.49609375 C-30.190625 13.91859375 -30.396875 13.34109375 -30.609375 12.74609375 C-31.08760119 9.87673664 -30.47713862 8.95915373 -28.984375 6.49609375 C-28.489375 5.60921875 -27.994375 4.72234375 -27.484375 3.80859375 C-25.984375 1.49609375 -25.984375 1.49609375 -23.984375 0.49609375 C-21.77652832 0.44973476 -19.56738438 0.45826918 -17.359375 0.49609375 C-13.29699601 0.53355421 -9.37946127 0.53508393 -5.359375 -0.06640625 C-1.984375 -0.50390625 -1.984375 -0.50390625 0 0 Z M21.015625 15.49609375 C21.015625 17.47609375 21.015625 19.45609375 21.015625 21.49609375 C22.335625 21.49609375 23.655625 21.49609375 25.015625 21.49609375 C25.015625 19.51609375 25.015625 17.53609375 25.015625 15.49609375 C23.695625 15.49609375 22.375625 15.49609375 21.015625 15.49609375 Z M100.015625 19.49609375 C101.015625 21.49609375 101.015625 21.49609375 101.015625 21.49609375 Z " fill="#0B0A02" transform="translate(38.984375,10.50390625)"/>
<path d="M0 0 C0.33 0.66 0.66 1.32 1 2 C1.66 2 2.32 2 3 2 C3 6.95 3 11.9 3 17 C-18.45 17 -39.9 17 -62 17 C-61.34 14.03 -60.68 11.06 -60 8 C-60.45375 8.66 -60.9075 9.32 -61.375 10 C-61.91125 10.66 -62.4475 11.32 -63 12 C-63.66 12 -64.32 12 -65 12 C-64.34 10.68 -63.68 9.36 -63 8 C-64.98 8.66 -66.96 9.32 -69 10 C-69.99 9.01 -69.99 9.01 -71 8 C-73.53951544 8.09111938 -73.53951544 8.09111938 -76 9 C-76.66 9.99 -77.32 10.98 -78 12 C-78.99 12 -79.98 12 -81 12 C-81 11.01 -81 10.02 -81 9 C-80.01 9 -79.02 9 -78 9 C-78 8.34 -78 7.68 -78 7 C-78.66 7 -79.32 7 -80 7 C-80 6.34 -80 5.68 -80 5 C-80.99 5 -81.98 5 -83 5 C-83.28875 5.969375 -83.5775 6.93875 -83.875 7.9375 C-85 11 -85 11 -87 12 C-87.33 10.68 -87.66 9.36 -88 8 C-89.32 8.33 -90.64 8.66 -92 9 C-92 8.34 -92 7.68 -92 7 C-92.99 7 -93.98 7 -95 7 C-95.33 9.31 -95.66 11.62 -96 14 C-95.319375 13.2575 -95.319375 13.2575 -94.625 12.5 C-93 11 -93 11 -91 11 C-90.505 11.99 -90.505 11.99 -90 13 C-83.73 13 -77.46 13 -71 13 C-72.98 12.505 -72.98 12.505 -75 12 C-75 11.01 -75 10.02 -75 9 C-72.49642139 9.8345262 -70.33214148 10.79371992 -68 12 C-68 12.66 -68 13.32 -68 14 C-66.35 13.67 -64.7 13.34 -63 13 C-63.33 13.99 -63.66 14.98 -64 16 C-65.65 15.67 -67.3 15.34 -69 15 C-69 15.66 -69 16.32 -69 17 C-118.17 17 -167.34 17 -218 17 C-218 12.05 -218 7.1 -218 2 C-146.06 2 -74.12 2 0 2 C0 1.34 0 0.68 0 0 Z " fill="#FCDB1F" transform="translate(227,31)"/>
<path d="M0 0 C2.26511996 0.68912312 2.26511996 0.68912312 5.640625 -0.00390625 C10.28600452 -0.60453634 14.79661234 -0.37521858 19.453125 -0.06640625 C25.62480668 0.33168418 31.76766476 0.61359374 37.953125 0.62109375 C38.68144531 0.62262451 39.40976563 0.62415527 40.16015625 0.62573242 C44.21188842 0.60311439 48.22497196 0.43299357 52.265625 0.12890625 C53.13195557 0.06687012 53.99828613 0.00483398 54.89086914 -0.05908203 C56.5661253 -0.18646216 58.24009321 -0.33251711 59.91186523 -0.49951172 C62.19921875 -0.67578125 62.19921875 -0.67578125 66.015625 -0.50390625 C68.82947942 1.96706069 68.9865593 3.10370685 69.265625 6.87109375 C69.03962447 10.14810149 68.57772266 13.2640322 68.015625 16.49609375 C67.99618998 18.1626471 67.99318035 19.82957822 68.015625 21.49609375 C62.07081319 21.54543774 56.12611991 21.58178657 50.18115234 21.60595703 C48.15769373 21.61603046 46.13424972 21.6296897 44.11083984 21.64697266 C41.20666911 21.67116222 38.30269039 21.68256324 35.3984375 21.69140625 C34.03587326 21.70689011 34.03587326 21.70689011 32.64578247 21.72268677 C31.80506195 21.72283783 30.96434143 21.72298889 30.09814453 21.72314453 C28.98561813 21.72980637 28.98561813 21.72980637 27.85061646 21.73660278 C26.015625 21.49609375 26.015625 21.49609375 24.015625 19.49609375 C24.015625 18.50609375 24.015625 17.51609375 24.015625 16.49609375 C23.025625 16.16609375 22.035625 15.83609375 21.015625 15.49609375 C21.015625 17.47609375 21.015625 19.45609375 21.015625 21.49609375 C3.855625 21.49609375 -13.304375 21.49609375 -30.984375 21.49609375 C-30.984375 27.10609375 -30.984375 32.71609375 -30.984375 38.49609375 C-31.314375 38.49609375 -31.644375 38.49609375 -31.984375 38.49609375 C-32.1798134 35.60059872 -32.36598895 32.70500377 -32.546875 29.80859375 C-32.63098633 28.58366211 -32.63098633 28.58366211 -32.71679688 27.33398438 C-33.20977284 19.21631353 -33.20977284 19.21631353 -31.984375 15.49609375 C-31.324375 15.16609375 -30.664375 14.83609375 -29.984375 14.49609375 C-30.190625 13.91859375 -30.396875 13.34109375 -30.609375 12.74609375 C-31.08760119 9.87673664 -30.47713862 8.95915373 -28.984375 6.49609375 C-28.489375 5.60921875 -27.994375 4.72234375 -27.484375 3.80859375 C-25.984375 1.49609375 -25.984375 1.49609375 -23.984375 0.49609375 C-21.77652832 0.44973476 -19.56738438 0.45826918 -17.359375 0.49609375 C-13.29699601 0.53355421 -9.37946127 0.53508393 -5.359375 -0.06640625 C-1.984375 -0.50390625 -1.984375 -0.50390625 0 0 Z " fill="#171301" transform="translate(38.984375,10.50390625)"/>
<path d="M0 0 C1.98 0.495 1.98 0.495 4 1 C4.02888146 4.31248187 4.04675799 7.62493167 4.0625 10.9375 C4.07087891 11.88302734 4.07925781 12.82855469 4.08789062 13.80273438 C4.09111328 14.70185547 4.09433594 15.60097656 4.09765625 16.52734375 C4.10289307 17.35999756 4.10812988 18.19265137 4.11352539 19.05053711 C4 21 4 21 3 22 C0.10481411 22.09795178 -2.76652079 22.12992093 -5.66212463 22.12025452 C-7.04160519 22.12153615 -7.04160519 22.12153615 -8.44895405 22.12284368 C-11.55526277 22.1245013 -14.66151845 22.11897252 -17.76782227 22.11352539 C-19.98469034 22.11324355 -22.2015585 22.11340118 -24.41842651 22.1139679 C-30.45743901 22.11425601 -36.49643183 22.1083571 -42.53543973 22.10139394 C-48.83888733 22.09516264 -55.14233532 22.09455678 -61.44578552 22.09336853 C-72.03246395 22.09060883 -82.61913589 22.08435332 -93.20581055 22.07543945 C-104.11206018 22.06626603 -115.01830784 22.05918486 -125.92456055 22.05493164 C-126.59637183 22.05466892 -127.26818311 22.05440619 -127.96035231 22.05413551 C-131.33049769 22.05283051 -134.70064309 22.05156679 -138.0707885 22.05032361 C-166.04719739 22.03985771 -194.02359819 22.02225698 -222 22 C-222.66 20.35 -223.32 18.7 -224 17 C-222.14458371 15.14458371 -219.50330482 15.87723091 -217.0343141 15.87091869 C-215.73716115 15.87528795 -215.73716115 15.87528795 -214.4138031 15.87974548 C-213.5023165 15.87889106 -212.5908299 15.87803663 -211.65172249 15.87715632 C-208.57305266 15.87549872 -205.49443636 15.88102744 -202.41577148 15.88647461 C-200.2186076 15.88675645 -198.02144362 15.88659882 -195.82427979 15.8860321 C-189.83898451 15.88574399 -183.85370909 15.89164287 -177.86841846 15.89860606 C-171.6210253 15.90483739 -165.37363174 15.90544322 -159.12623596 15.90663147 C-148.63371458 15.90939116 -138.14119937 15.91564666 -127.64868164 15.92456055 C-116.83943722 15.93373399 -106.03019479 15.94081515 -95.22094727 15.94506836 C-94.22219133 15.94546244 -94.22219133 15.94546244 -93.20325851 15.94586449 C-89.86308126 15.94716949 -86.52290401 15.94843096 -83.18272674 15.94967639 C-55.45514606 15.96014227 -27.72757354 15.97774298 0 16 C0 10.72 0 5.44 0 0 Z " fill="#010000" transform="translate(231,33)"/>
<path d="M0 0 C0.67401855 -0.00014603 1.34803711 -0.00029205 2.04248047 -0.0004425 C4.24458161 0.0002477 6.44659549 0.00799775 8.64868164 0.01586914 C10.18567356 0.0177365 11.72266608 0.0191589 13.25965881 0.02015686 C17.2857124 0.02395702 21.31172935 0.03376569 25.33776855 0.04486084 C29.453771 0.05512899 33.56977943 0.05966602 37.68579102 0.06469727 C45.7476567 0.07539042 53.80949273 0.09243648 61.87133789 0.11352539 C60.87133789 3.11352539 60.87133789 3.11352539 58.87133789 4.11352539 C58.2157867 6.64085774 58.2157867 6.64085774 57.87133789 9.11352539 C58.53133789 9.11352539 59.19133789 9.11352539 59.87133789 9.11352539 C60.20133789 7.79352539 60.53133789 6.47352539 60.87133789 5.11352539 C64.02470589 4.41277695 66.59858763 4.11352539 69.87133789 4.11352539 C69.54133789 5.76352539 69.21133789 7.41352539 68.87133789 9.11352539 C70.85133789 9.11352539 72.83133789 9.11352539 74.87133789 9.11352539 C74.87133789 8.12352539 74.87133789 7.13352539 74.87133789 6.11352539 C73.55133789 6.44352539 72.23133789 6.77352539 70.87133789 7.11352539 C72.18383789 5.61352539 72.18383789 5.61352539 73.87133789 4.11352539 C74.86133789 4.11352539 75.85133789 4.11352539 76.87133789 4.11352539 C77.49633789 6.48852539 77.49633789 6.48852539 77.87133789 9.11352539 C75.87133789 11.11352539 75.87133789 11.11352539 73.71655273 11.34057617 C72.84724121 11.33010254 71.97792969 11.31962891 71.08227539 11.30883789 C69.67075195 11.29916992 69.67075195 11.29916992 68.23071289 11.28930664 C67.24586914 11.27254883 66.26102539 11.25579102 65.24633789 11.23852539 C64.25375977 11.22950195 63.26118164 11.22047852 62.23852539 11.21118164 C59.78255655 11.18756656 57.32706621 11.15463338 54.87133789 11.11352539 C54.87133789 10.45352539 54.87133789 9.79352539 54.87133789 9.11352539 C54.21133789 9.11352539 53.55133789 9.11352539 52.87133789 9.11352539 C52.87133789 8.45352539 52.87133789 7.79352539 52.87133789 7.11352539 C52.43821289 7.77352539 52.00508789 8.43352539 51.55883789 9.11352539 C47.81337285 11.90084821 44.87324367 11.33884398 40.33227539 11.05883789 C37.69014559 10.83390259 37.69014559 10.83390259 35.87133789 13.11352539 C33.18294404 13.38344445 30.57991853 13.20089896 27.87133789 13.11352539 C28.53133789 12.45352539 29.19133789 11.79352539 29.87133789 11.11352539 C27.98415039 11.05165039 27.98415039 11.05165039 26.05883789 10.98852539 C25.35114258 10.96532227 24.64344727 10.94211914 23.91430664 10.91821289 C21.5577407 10.98098077 21.5577407 10.98098077 18.87133789 13.11352539 C15.95336914 13.30883789 15.95336914 13.30883789 12.68383789 13.23852539 C11.05381836 13.21145508 11.05381836 13.21145508 9.39086914 13.18383789 C8.14370117 13.1490332 8.14370117 13.1490332 6.87133789 13.11352539 C6.87133789 12.45352539 6.87133789 11.79352539 6.87133789 11.11352539 C2.58133789 11.11352539 -1.70866211 11.11352539 -6.12866211 11.11352539 C-6.45866211 9.46352539 -6.78866211 7.81352539 -7.12866211 6.11352539 C-9.10866211 7.10352539 -9.10866211 7.10352539 -11.12866211 8.11352539 C-10.13866211 8.11352539 -9.14866211 8.11352539 -8.12866211 8.11352539 C-8.12866211 8.77352539 -8.12866211 9.43352539 -8.12866211 10.11352539 C-10.89116246 11.49477557 -13.0759731 11.30431845 -16.12866211 11.11352539 C-18.12866211 9.11352539 -18.12866211 9.11352539 -18.50366211 6.67602539 C-18.12866211 4.11352539 -18.12866211 4.11352539 -16.56616211 2.36352539 C-11.4758562 -0.2468879 -5.61347992 -0.01029996 0 0 Z " fill="#F5D01B" transform="translate(42.128662109375,33.886474609375)"/>
<path d="M0 0 C29.37 0 58.74 0 89 0 C89 4.29 89 8.58 89 13 C85.87477228 13.05378021 82.7504629 13.09356575 79.625 13.125 C78.73554688 13.14175781 77.84609375 13.15851562 76.9296875 13.17578125 C76.07890625 13.18222656 75.228125 13.18867187 74.3515625 13.1953125 C73.17327881 13.21102295 73.17327881 13.21102295 71.97119141 13.22705078 C70 13 70 13 68 11 C64.95390709 10.77089648 64.95390709 10.77089648 61.3828125 10.91015625 C60.04036829 10.93058344 58.69792021 10.9507578 57.35546875 10.97070312 C55.2399055 11.01415343 53.12459929 11.06251022 51.00927734 11.11645508 C48.96713105 11.16485056 46.92532542 11.19464846 44.8828125 11.22265625 C43.65965332 11.25109619 42.43649414 11.27953613 41.17626953 11.30883789 C37.77087339 10.97772136 36.44865342 10.31803318 34 8 C35.32 9.65 36.64 11.3 38 13 C33.71 13 29.42 13 25 13 C25.66 11.35 26.32 9.7 27 8 C27 7.01 27 6.02 27 5 C26.54625 5.66 26.0925 6.32 25.625 7 C25.08875 7.66 24.5525 8.32 24 9 C23.34 9 22.68 9 22 9 C22.66 7.68 23.32 6.36 24 5 C22.02 5.66 20.04 6.32 18 7 C17.34 6.34 16.68 5.68 16 5 C13.46048456 5.09111938 13.46048456 5.09111938 11 6 C10.01 7.485 10.01 7.485 9 9 C8.01 9 7.02 9 6 9 C6 8.01 6 7.02 6 6 C6.99 6 7.98 6 9 6 C9 5.34 9 4.68 9 4 C8.34 4 7.68 4 7 4 C7 3.34 7 2.68 7 2 C4.69 1.67 2.38 1.34 0 1 C0 0.67 0 0.34 0 0 Z " fill="#F7CF1B" transform="translate(140,34)"/>
<path d="M0 0 C9.44957443 0.07335453 18.89920137 0.13844086 28.34883881 0.20307851 C47.68903514 0.33554256 67.02914909 0.47761423 86.36922455 0.62664449 C86.36922455 0.95664449 86.36922455 1.28664449 86.36922455 1.62664449 C14.42922455 1.62664449 -57.51077545 1.62664449 -131.63077545 1.62664449 C-131.63077545 6.57664449 -131.63077545 11.52664449 -131.63077545 16.62664449 C-82.46077545 16.62664449 -33.29077545 16.62664449 17.36922455 16.62664449 C17.36922455 15.96664449 17.36922455 15.30664449 17.36922455 14.62664449 C19.01922455 14.62664449 20.66922455 14.62664449 22.36922455 14.62664449 C21.72984955 14.50289449 21.09047455 14.37914449 20.43172455 14.25164449 C19.75109955 14.04539449 19.07047455 13.83914449 18.36922455 13.62664449 C18.03922455 12.96664449 17.70922455 12.30664449 17.36922455 11.62664449 C16.54422455 11.46164449 15.71922455 11.29664449 14.86922455 11.12664449 C14.04422455 10.96164449 13.21922455 10.79664449 12.36922455 10.62664449 C12.03922455 9.96664449 11.70922455 9.30664449 11.36922455 8.62664449 C11.36922455 9.61664449 11.36922455 10.60664449 11.36922455 11.62664449 C13.01922455 11.62664449 14.66922455 11.62664449 16.36922455 11.62664449 C16.03922455 12.28664449 15.70922455 12.94664449 15.36922455 13.62664449 C9.09922455 13.62664449 2.82922455 13.62664449 -3.63077545 13.62664449 C-3.96077545 12.63664449 -4.29077545 11.64664449 -4.63077545 10.62664449 C-5.29077545 10.62664449 -5.95077545 10.62664449 -6.63077545 10.62664449 C-6.96077545 11.61664449 -7.29077545 12.60664449 -7.63077545 13.62664449 C-8.29077545 13.62664449 -8.95077545 13.62664449 -9.63077545 13.62664449 C-9.30077545 11.31664449 -8.97077545 9.00664449 -8.63077545 6.62664449 C-8.05327545 6.79164449 -7.47577545 6.95664449 -6.88077545 7.12664449 C-4.36413176 7.7712648 -4.36413176 7.7712648 -0.63077545 7.62664449 C-0.30077545 8.61664449 0.02922455 9.60664449 0.36922455 10.62664449 C1.35922455 8.64664449 2.34922455 6.66664449 3.36922455 4.62664449 C4.35922455 4.62664449 5.34922455 4.62664449 6.36922455 4.62664449 C6.36922455 5.28664449 6.36922455 5.94664449 6.36922455 6.62664449 C7.02922455 6.62664449 7.68922455 6.62664449 8.36922455 6.62664449 C8.36922455 7.28664449 8.36922455 7.94664449 8.36922455 8.62664449 C7.37922455 8.62664449 6.38922455 8.62664449 5.36922455 8.62664449 C5.36922455 9.61664449 5.36922455 10.60664449 5.36922455 11.62664449 C6.35922455 11.62664449 7.34922455 11.62664449 8.36922455 11.62664449 C8.59609955 10.98726949 8.82297455 10.34789449 9.05672455 9.68914449 C10.36922455 7.62664449 10.36922455 7.62664449 12.80672455 6.75164449 C15.36922455 6.62664449 15.36922455 6.62664449 18.36922455 8.62664449 C19.35922455 7.96664449 20.34922455 7.30664449 21.36922455 6.62664449 C22.35922455 6.95664449 23.34922455 7.28664449 24.36922455 7.62664449 C23.37922455 8.94664449 22.38922455 10.26664449 21.36922455 11.62664449 C23.34922455 9.97664449 25.32922455 8.32664449 27.36922455 6.62664449 C26.61922455 13.25164449 26.61922455 13.25164449 24.36922455 16.62664449 C45.81922455 16.62664449 67.26922455 16.62664449 89.36922455 16.62664449 C89.36922455 11.67664449 89.36922455 6.72664449 89.36922455 1.62664449 C88.37922455 1.13164449 88.37922455 1.13164449 87.36922455 0.62664449 C88.35922455 0.62664449 89.34922455 0.62664449 90.36922455 0.62664449 C90.36922455 6.23664449 90.36922455 11.84664449 90.36922455 17.62664449 C16.77922455 17.62664449 -56.81077545 17.62664449 -132.63077545 17.62664449 C-132.63077545 12.01664449 -132.63077545 6.40664449 -132.63077545 0.62664449 C-88.41060207 -0.52487804 -44.22914674 -0.34469071 0 0 Z " fill="#B5981B" transform="translate(140.63077545166016,31.373355507850647)"/>
<path d="M0 0 C2.55130346 2.4531764 2.9856593 3.80640059 3.25 7.375 C3.02399947 10.65200774 2.56209766 13.76793845 2 17 C1.98056498 18.66655335 1.97755535 20.33348447 2 22 C-3.94481181 22.04934399 -9.88950509 22.08569282 -15.83447266 22.10986328 C-17.85793127 22.11993671 -19.88137528 22.13359595 -21.90478516 22.15087891 C-24.80895589 22.17506847 -27.71293461 22.18646949 -30.6171875 22.1953125 C-31.97975174 22.21079636 -31.97975174 22.21079636 -33.36984253 22.22659302 C-34.21056305 22.22674408 -35.05128357 22.22689514 -35.91748047 22.22705078 C-37.03000687 22.23371262 -37.03000687 22.23371262 -38.16500854 22.24050903 C-40 22 -40 22 -42 20 C-41.505 18.515 -41.505 18.515 -41 17 C-35.39 17.33 -29.78 17.66 -24 18 C-24 16.68 -24 15.36 -24 14 C-25.32 13.67 -26.64 13.34 -28 13 C-28 13.66 -28 14.32 -28 15 C-29.32 15 -30.64 15 -32 15 C-32 13.35 -32 11.7 -32 10 C-30.02 10 -28.04 10 -26 10 C-26 9.34 -26 8.68 -26 8 C-27.65 8 -29.3 8 -31 8 C-30.67 6.68 -30.34 5.36 -30 4 C-28.35 4 -26.7 4 -25 4 C-25 4.66 -25 5.32 -25 6 C-23.68 6 -22.36 6 -21 6 C-20.34 4.35 -19.68 2.7 -19 1 C-16.20837429 0.83262201 -13.41670379 0.66606598 -10.625 0.5 C-9.8309375 0.45230469 -9.036875 0.40460937 -8.21875 0.35546875 C-2.2265625 0 -2.2265625 0 0 0 Z " fill="#020200" transform="translate(105,10)"/>
<path d="M0 0 C0.66 0 1.32 0 2 0 C2.33 -0.33 2.66 -0.66 3 -1 C5.33297433 -1.04092937 7.66705225 -1.04241723 10 -1 C10 0.32 10 1.64 10 3 C9.01 3 8.02 3 7 3 C6.814375 4.5778125 6.814375 4.5778125 6.625 6.1875 C6.08859218 9.45958771 5.36119965 12.00536076 4 15 C2.02 15 0.04 15 -2 15 C-2.99 13.02 -3.98 11.04 -5 9 C-5.99 11.31 -6.98 13.62 -8 16 C-12.62 16 -17.24 16 -22 16 C-21.67 13.69 -21.34 11.38 -21 9 C-22.65 9 -24.3 9 -26 9 C-26.33 11.31 -26.66 13.62 -27 16 C-29.31 16 -31.62 16 -34 16 C-34 15.01 -34 14.02 -34 13 C-33.34 13 -32.68 13 -32 13 C-31.66451233 11.20873548 -31.33167645 9.41697413 -31 7.625 C-30.814375 6.62726562 -30.62875 5.62953125 -30.4375 4.6015625 C-29.94472017 2.11096455 -29.94472017 2.11096455 -30 0 C-29.44538086 -0.02505615 -28.89076172 -0.0501123 -28.31933594 -0.07592773 C-25.79601157 -0.19227927 -23.27302464 -0.31482754 -20.75 -0.4375 C-19.87730469 -0.47681641 -19.00460938 -0.51613281 -18.10546875 -0.55664062 C-17.26113281 -0.59853516 -16.41679687 -0.64042969 -15.546875 -0.68359375 C-14.77182617 -0.72025146 -13.99677734 -0.75690918 -13.19824219 -0.79467773 C-10.9995576 -0.93355614 -10.9995576 -0.93355614 -8.94238281 -1.57836914 C-5.75671899 -2.26987761 -3.04662577 -0.95912293 0 0 Z " fill="#EFC60D" transform="translate(183,12)"/>
<path d="M0 0 C1.216875 -0.165 2.43375 -0.33 3.6875 -0.5 C11.08222262 -1.48347321 18.59452101 -0.55264769 26 0 C26.1171875 5.703125 26.1171875 5.703125 25.0625 8.375 C21.73685476 10.99520534 18.0782683 10.30779383 14 10 C13.67 11.32 13.34 12.64 13 14 C13.66 14.33 14.32 14.66 15 15 C14 16 14 16 11.93359375 16.09765625 C11.10988281 16.08605469 10.28617188 16.07445313 9.4375 16.0625 C8.61121094 16.05347656 7.78492187 16.04445313 6.93359375 16.03515625 C5.97646484 16.01775391 5.97646484 16.01775391 5 16 C5 15.34 5 14.68 5 14 C5.66 13.67 6.32 13.34 7 13 C7.90725434 10.88672575 7.90725434 10.88672575 8.625 8.4375 C8.88539062 7.61121094 9.14578125 6.78492188 9.4140625 5.93359375 C9.60742188 5.29550781 9.80078125 4.65742188 10 4 C8.35 4 6.7 4 5 4 C4.79503906 4.78246094 4.59007813 5.56492187 4.37890625 6.37109375 C4.10949219 7.38300781 3.84007813 8.39492188 3.5625 9.4375 C3.29566406 10.44683594 3.02882813 11.45617187 2.75390625 12.49609375 C2 15 2 15 1 16 C-1.35313555 16.07271741 -3.70833668 16.08370868 -6.0625 16.0625 C-7.35285156 16.05347656 -8.64320312 16.04445313 -9.97265625 16.03515625 C-10.97167969 16.02355469 -11.97070312 16.01195313 -13 16 C-12.85831863 14.56208484 -12.71148957 13.1246763 -12.5625 11.6875 C-12.48128906 10.88699219 -12.40007813 10.08648437 -12.31640625 9.26171875 C-12 7 -12 7 -11 4 C-11.66 3.67 -12.32 3.34 -13 3 C-12.67 2.01 -12.34 1.02 -12 0 C-7.49268041 -0.67609794 -4.40087207 -1.11115458 0 0 Z " fill="#E3C10D" transform="translate(41,11)"/>
<path d="M0 0 C0.33 0.66 0.66 1.32 1 2 C1.66 2 2.32 2 3 2 C3 6.95 3 11.9 3 17 C-18.45 17 -39.9 17 -62 17 C-62 16.67 -62 16.34 -62 16 C-58.04 15.67 -54.08 15.34 -50 15 C-51.98 14.01 -51.98 14.01 -54 13 C-53.67 12.01 -53.34 11.02 -53 10 C-52.23187988 10.73343628 -52.23187988 10.73343628 -51.44824219 11.48168945 C-48.11692273 13.54765233 -45.72983194 13.34094056 -41.828125 13.29296875 C-41.1457074 13.28872391 -40.46328979 13.28447906 -39.76019287 13.28010559 C-37.58971996 13.26336972 -35.42019021 13.22572959 -33.25 13.1875 C-31.77475303 13.17244646 -30.29949145 13.15875922 -28.82421875 13.14648438 C-25.21584156 13.11348377 -21.6080129 13.06173767 -18 13 C-17.67 13.99 -17.34 14.98 -17 16 C-10.73 16 -4.46 16 2 16 C2 11.71 2 7.42 2 3 C0.89693512 3.01252808 -0.20612976 3.02505615 -1.34262085 3.03796387 C-14.50771394 3.1866848 -27.67288625 3.32726399 -40.83811569 3.46335983 C-43.18830912 3.48770654 -45.5385009 3.51221363 -47.88869095 3.53688431 C-74.80242599 3.81903467 -101.71349848 4.04819144 -128.62890625 3.99609375 C-129.67242249 3.99434269 -130.71593872 3.99259163 -131.79107666 3.99078751 C-141.74609778 3.97357433 -151.70094185 3.94681591 -161.65581989 3.88981533 C-165.28587981 3.87074594 -168.91593812 3.85940362 -172.54603386 3.84968758 C-174.21299034 3.84323693 -175.87993759 3.83313072 -177.54684639 3.81896782 C-191.37585184 3.27999056 -191.37585184 3.27999056 -204 8 C-203.34 6.68 -202.68 5.36 -202 4 C-206.95 3.67 -211.9 3.34 -217 3 C-217 7.29 -217 11.58 -217 16 C-211.06 16 -205.12 16 -199 16 C-199 16.33 -199 16.66 -199 17 C-205.27 17 -211.54 17 -218 17 C-218 12.05 -218 7.1 -218 2 C-146.06 2 -74.12 2 0 2 C0 1.34 0 0.68 0 0 Z " fill="#FCDE26" transform="translate(227,31)"/>
<path d="M0 0 C1.1758667 0.00493217 1.1758667 0.00493217 2.37548828 0.00996399 C4.87588925 0.02569105 7.37494561 0.06973719 9.875 0.11328125 C11.55728075 0.12477489 13.2395741 0.13455938 14.921875 0.14257812 C16.53126365 0.15600505 18.14064065 0.17092881 19.75 0.1875 C20.5042627 0.19488693 21.25852539 0.20227386 22.03564453 0.20988464 C25.44209643 0.2716804 28.61712174 0.366651 31.875 1.42578125 C31.5625 4.30078125 31.5625 4.30078125 30.875 7.42578125 C29.885 8.08578125 28.895 8.74578125 27.875 9.42578125 C27.38 7.44578125 27.38 7.44578125 26.875 5.42578125 C25.555 5.75578125 24.235 6.08578125 22.875 6.42578125 C22.875 5.76578125 22.875 5.10578125 22.875 4.42578125 C21.885 4.42578125 20.895 4.42578125 19.875 4.42578125 C19.545 6.73578125 19.215 9.04578125 18.875 11.42578125 C19.555625 10.68328125 19.555625 10.68328125 20.25 9.92578125 C21.875 8.42578125 21.875 8.42578125 23.875 8.42578125 C25.5 10.42578125 25.5 10.42578125 26.875 12.42578125 C23.10460943 14.31097654 18.52345405 13.61054119 14.375 13.61328125 C13.39917969 13.62552734 12.42335938 13.63777344 11.41796875 13.65039062 C10.01998047 13.65329102 10.01998047 13.65329102 8.59375 13.65625 C7.73716797 13.66035889 6.88058594 13.66446777 5.99804688 13.66870117 C3.875 13.42578125 3.875 13.42578125 1.875 11.42578125 C3.525 10.76578125 5.175 10.10578125 6.875 9.42578125 C6.875 7.77578125 6.875 6.12578125 6.875 4.42578125 C4.895 5.41578125 4.895 5.41578125 2.875 6.42578125 C3.535 6.42578125 4.195 6.42578125 4.875 6.42578125 C4.875 7.41578125 4.875 8.40578125 4.875 9.42578125 C2.895 9.42578125 0.915 9.42578125 -1.125 9.42578125 C-0.795 7.77578125 -0.465 6.12578125 -0.125 4.42578125 C-4.17585679 4.67209682 -4.17585679 4.67209682 -8.125 5.42578125 C-9.7149433 7.34642918 -9.7149433 7.34642918 -10.125 9.42578125 C-10.785 9.42578125 -11.445 9.42578125 -12.125 9.42578125 C-12.46925887 6.32745138 -12.43617426 4.86850926 -10.6171875 2.28051758 C-7.17811776 -0.27890766 -4.11652866 -0.09555364 0 0 Z " fill="#F5CF1C" transform="translate(112.125,33.57421875)"/>
<path d="M0 0 C0.66 0 1.32 0 2 0 C1.34 2.64 0.68 5.28 0 8 C0.66 8 1.32 8 2 8 C2.12375 7.360625 2.2475 6.72125 2.375 6.0625 C2.684375 5.0415625 2.684375 5.0415625 3 4 C5.95664519 2.5216774 8.74229737 2.93967217 12 3 C11.67 4.65 11.34 6.3 11 8 C13.31 8 15.62 8 18 8 C17.34 7.34 16.68 6.68 16 6 C15.01 6.33 14.02 6.66 13 7 C13.33 6.01 13.66 5.02 14 4 C16.375 3.375 16.375 3.375 19 3 C19.66 3.66 20.32 4.32 21 5 C20.625 7.125 20.625 7.125 20 9 C13.13472037 10.09967885 6.37870764 10.2210175 -0.55297852 10.24023438 C-2.69260351 10.25002335 -4.83129932 10.28114984 -6.97070312 10.3125 C-8.33853602 10.31902392 -9.70637571 10.32427679 -11.07421875 10.328125 C-12.30744873 10.3374707 -13.54067871 10.34681641 -14.8112793 10.35644531 C-18.20011839 9.97763013 -19.55551055 9.30777474 -22 7 C-22.99 8.485 -22.99 8.485 -24 10 C-24.99 10 -25.98 10 -27 10 C-26.67 8.02 -26.34 6.04 -26 4 C-22.16275828 3.09586327 -18.62497726 2.89423102 -14.6875 2.9375 C-13.08455078 2.95103516 -13.08455078 2.95103516 -11.44921875 2.96484375 C-10.64097656 2.97644531 -9.83273438 2.98804688 -9 3 C-9 3.99 -9 4.98 -9 6 C-8.608125 5.505 -8.21625 5.01 -7.8125 4.5 C-5.44908285 2.54406857 -3.98564997 2.75792027 -1 3 C-0.67 2.01 -0.34 1.02 0 0 Z " fill="#2F2B12" transform="translate(196,35)"/>
<path d="M0 0 C5.61 0 11.22 0 17 0 C18 4 18 4 17.0625 6.25 C16.5365625 7.11625 16.5365625 7.11625 16 8 C14.68 8 13.36 8 12 8 C12 6.35 12 4.7 12 3 C10.35 3 8.7 3 7 3 C6.67 4.65 6.34 6.3 6 8 C7.11375 8.144375 8.2275 8.28875 9.375 8.4375 C13 9 13 9 15 10 C15.40729228 12.32156597 15.74438677 14.6568787 16 17 C13.69 17 11.38 17 9 17 C8 14 8 14 9 11 C7.68 10.67 6.36 10.34 5 10 C4.67 12.31 4.34 14.62 4 17 C1.69 17 -0.62 17 -3 17 C-3 16.01 -3 15.02 -3 14 C-2.34 14 -1.68 14 -1 14 C-0.83081732 12.41693353 -0.66476064 10.83353281 -0.5 9.25 C-0.4071875 8.36828125 -0.314375 7.4865625 -0.21875 6.578125 C0.05636313 3.76695165 0.05636313 3.76695165 0 0 Z " fill="#DEBF0D" transform="translate(86,11)"/>
<path d="M0 0 C3.63 0 7.26 0 11 0 C11.495 7.92 11.495 7.92 12 16 C9.36 16 6.72 16 4 16 C4.33 14.35 4.66 12.7 5 11 C3.35 11 1.7 11 0 11 C-0.66 12.65 -1.32 14.3 -2 16 C-3.98 16 -5.96 16 -8 16 C-8 15.01 -8 14.02 -8 13 C-7.34 13 -6.68 13 -6 13 C-5.7525 12.34 -5.505 11.68 -5.25 11 C-3.67935707 7.23045697 -1.85093631 3.64017475 0 0 Z " fill="#EACA0E" transform="translate(136,12)"/>
<path d="M0 0 C1.26457031 0.05800781 2.52914063 0.11601562 3.83203125 0.17578125 C5.10433594 0.22089844 6.37664063 0.26601562 7.6875 0.3125 C8.66332031 0.37050781 9.63914062 0.42851562 10.64453125 0.48828125 C10.31453125 1.80828125 9.98453125 3.12828125 9.64453125 4.48828125 C6.67453125 4.15828125 3.70453125 3.82828125 0.64453125 3.48828125 C0.64453125 4.47828125 0.64453125 5.46828125 0.64453125 6.48828125 C3.28453125 6.48828125 5.92453125 6.48828125 8.64453125 6.48828125 C7.76953125 14.36328125 7.76953125 14.36328125 6.64453125 15.48828125 C4.2913957 15.56099866 1.93619457 15.57198993 -0.41796875 15.55078125 C-1.70832031 15.54175781 -2.99867187 15.53273438 -4.328125 15.5234375 C-5.32714844 15.51183594 -6.32617188 15.50023437 -7.35546875 15.48828125 C-8.59811581 8.96438419 -8.59811581 8.96438419 -6.35546875 5.48828125 C-5.98292969 4.62976563 -5.61039063 3.77125 -5.2265625 2.88671875 C-3.35546875 0.48828125 -3.35546875 0.48828125 0 0 Z " fill="#D4BA0F" transform="translate(16.35546875,11.51171875)"/>
<path d="M0 0 C5.61 0 11.22 0 17 0 C16.01 0.99 15.02 1.98 14 3 C14.87472593 7.95514502 14.87472593 7.95514502 18.125 11.4375 C18.74375 11.623125 19.3625 11.80875 20 12 C17.29283758 12.90238747 15.76223232 13.11851302 12.98828125 13.09765625 C11.85229492 13.09282227 11.85229492 13.09282227 10.69335938 13.08789062 C9.90767578 13.07951172 9.12199219 13.07113281 8.3125 13.0625 C7.51521484 13.05798828 6.71792969 13.05347656 5.89648438 13.04882812 C3.93095743 13.0370585 1.96546915 13.01912348 0 13 C0 8.71 0 4.42 0 0 Z " fill="#FACC1B" transform="translate(10,34)"/>
<path d="M0 0 C2.64 0 5.28 0 8 0 C7.68991116 1.60463449 7.37683713 3.20869231 7.0625 4.8125 C6.88847656 5.70582031 6.71445312 6.59914063 6.53515625 7.51953125 C6 10 6 10 5 13 C6.32 13 7.64 13 9 13 C9.12375 11.948125 9.2475 10.89625 9.375 9.8125 C10.58823529 2.41176471 10.58823529 2.41176471 13 0 C14.99958364 -0.04080783 17.00045254 -0.04254356 19 0 C19 0.99 19 1.98 19 3 C18.34 3 17.68 3 17 3 C16.79503906 3.78246094 16.59007813 4.56492187 16.37890625 5.37109375 C16.10949219 6.38300781 15.84007813 7.39492188 15.5625 8.4375 C15.29566406 9.44683594 15.02882813 10.45617187 14.75390625 11.49609375 C14 14 14 14 13 15 C10.64686445 15.07271741 8.29166332 15.08370868 5.9375 15.0625 C4.64714844 15.05347656 3.35679688 15.04445313 2.02734375 15.03515625 C1.02832031 15.02355469 0.02929688 15.01195312 -1 15 C-0.85831863 13.56208484 -0.71148957 12.1246763 -0.5625 10.6875 C-0.48128906 9.88699219 -0.40007813 9.08648437 -0.31640625 8.26171875 C0 6 0 6 1 3 C0.34 2.67 -0.32 2.34 -1 2 C-0.67 1.34 -0.34 0.68 0 0 Z " fill="#EDCC0E" transform="translate(29,12)"/>
<path d="M0 0 C0.99 0 1.98 0 3 0 C3 0.66 3 1.32 3 2 C3.66 2 4.32 2 5 2 C5 2.66 5 3.32 5 4 C4.01 4 3.02 4 2 4 C2 4.99 2 5.98 2 7 C2.99 7 3.98 7 5 7 C5.226875 6.360625 5.45375 5.72125 5.6875 5.0625 C7 3 7 3 9.4375 2.125 C12 2 12 2 15 4 C15.99 3.34 16.98 2.68 18 2 C19.485 2.495 19.485 2.495 21 3 C20.01 4.32 19.02 5.64 18 7 C19.98 5.35 21.96 3.7 24 2 C23.39779006 8.38342541 23.39779006 8.38342541 21.75 10.9375 C19.41628148 12.35440053 17.67863922 12.21718696 15 12 C15 11.34 15 10.68 15 10 C16.32 9.67 17.64 9.34 19 9 C17.68 9 16.36 9 15 9 C14.67 8.34 14.34 7.68 14 7 C12.7625 6.7525 12.7625 6.7525 11.5 6.5 C10.2625 6.2525 10.2625 6.2525 9 6 C8.67 5.34 8.34 4.68 8 4 C8 4.99 8 5.98 8 7 C9.65 7 11.3 7 13 7 C12.67 7.66 12.34 8.32 12 9 C5.73 9 -0.54 9 -7 9 C-7.33 8.01 -7.66 7.02 -8 6 C-8.66 6 -9.32 6 -10 6 C-10.33 6.99 -10.66 7.98 -11 9 C-11.66 9 -12.32 9 -13 9 C-12.67 6.69 -12.34 4.38 -12 2 C-11.4225 2.165 -10.845 2.33 -10.25 2.5 C-7.73335631 3.14462031 -7.73335631 3.14462031 -4 3 C-3.67 3.99 -3.34 4.98 -3 6 C-2.01 4.02 -1.02 2.04 0 0 Z " fill="#322D12" transform="translate(144,36)"/>
<path d="M0 0 C1.27617187 0.02320313 2.55234375 0.04640625 3.8671875 0.0703125 C5.78917969 0.09738281 5.78917969 0.09738281 7.75 0.125 C9.23113281 0.15980469 9.23113281 0.15980469 10.7421875 0.1953125 C10.4121875 1.8453125 10.0821875 3.4953125 9.7421875 5.1953125 C8.0921875 5.1953125 6.4421875 5.1953125 4.7421875 5.1953125 C4.7421875 4.5353125 4.7421875 3.8753125 4.7421875 3.1953125 C3.4221875 3.1953125 2.1021875 3.1953125 0.7421875 3.1953125 C0.4121875 4.5153125 0.0821875 5.8353125 -0.2578125 7.1953125 C2.3821875 7.1953125 5.0221875 7.1953125 7.7421875 7.1953125 C7.83984375 13.34765625 7.83984375 13.34765625 7.7421875 15.1953125 C6.7421875 16.1953125 6.7421875 16.1953125 3.36328125 16.29296875 C1.96871673 16.28629619 0.57417007 16.27433782 -0.8203125 16.2578125 C-1.53123047 16.25330078 -2.24214844 16.24878906 -2.97460938 16.24414062 C-4.73571263 16.23232114 -6.49677286 16.21438513 -8.2578125 16.1953125 C-8.2578125 14.8753125 -8.2578125 13.5553125 -8.2578125 12.1953125 C-6.2778125 12.1953125 -4.2978125 12.1953125 -2.2578125 12.1953125 C-2.2578125 12.8553125 -2.2578125 13.5153125 -2.2578125 14.1953125 C-0.9378125 14.1953125 0.3821875 14.1953125 1.7421875 14.1953125 C2.0721875 12.8753125 2.4021875 11.5553125 2.7421875 10.1953125 C0.1021875 10.1953125 -2.5378125 10.1953125 -5.2578125 10.1953125 C-5.453125 4.140625 -5.453125 4.140625 -5.2578125 2.1953125 C-3.2578125 0.1953125 -3.2578125 0.1953125 0 0 Z " fill="#E8CB11" transform="translate(217.2578125,10.8046875)"/>
<path d="M0 0 C1.48831242 0.00667405 2.97660807 0.01863442 4.46484375 0.03515625 C5.22345703 0.03966797 5.98207031 0.04417969 6.76367188 0.04882812 C8.64326246 0.06064945 10.52281274 0.07858547 12.40234375 0.09765625 C12.07234375 1.41765625 11.74234375 2.73765625 11.40234375 4.09765625 C10.08234375 4.09765625 8.76234375 4.09765625 7.40234375 4.09765625 C7.40234375 3.43765625 7.40234375 2.77765625 7.40234375 2.09765625 C5.75234375 2.09765625 4.10234375 2.09765625 2.40234375 2.09765625 C2.07234375 3.41765625 1.74234375 4.73765625 1.40234375 6.09765625 C3.05234375 6.09765625 4.70234375 6.09765625 6.40234375 6.09765625 C6.40234375 6.75765625 6.40234375 7.41765625 6.40234375 8.09765625 C4.42234375 8.09765625 2.44234375 8.09765625 0.40234375 8.09765625 C0.07234375 9.74765625 -0.25765625 11.39765625 -0.59765625 13.09765625 C1.05234375 13.09765625 2.70234375 13.09765625 4.40234375 13.09765625 C4.40234375 12.43765625 4.40234375 11.77765625 4.40234375 11.09765625 C6.05234375 11.09765625 7.70234375 11.09765625 9.40234375 11.09765625 C9.07234375 12.74765625 8.74234375 14.39765625 8.40234375 16.09765625 C2.79234375 16.09765625 -2.81765625 16.09765625 -8.59765625 16.09765625 C-8.26765625 15.10765625 -7.93765625 14.11765625 -7.59765625 13.09765625 C-6.93765625 13.09765625 -6.27765625 13.09765625 -5.59765625 13.09765625 C-5.53707031 12.24300781 -5.47648438 11.38835938 -5.4140625 10.5078125 C-5.28837891 8.85072266 -5.28837891 8.85072266 -5.16015625 7.16015625 C-5.07894531 6.05800781 -4.99773437 4.95585937 -4.9140625 3.8203125 C-4.43662427 -0.288014 -4.30966348 0.11698326 0 0 Z " fill="#DDC10D" transform="translate(198.59765625,11.90234375)"/>
<path d="M0 0 C1.76923828 0.04060547 1.76923828 0.04060547 3.57421875 0.08203125 C4.47785156 0.11683594 5.38148438 0.15164063 6.3125 0.1875 C5.9825 1.8375 5.6525 3.4875 5.3125 5.1875 C3.6625 5.1875 2.0125 5.1875 0.3125 5.1875 C0.3125 4.5275 0.3125 3.8675 0.3125 3.1875 C-1.0075 3.1875 -2.3275 3.1875 -3.6875 3.1875 C-4.3475 6.8175 -5.0075 10.4475 -5.6875 14.1875 C-4.3675 14.1875 -3.0475 14.1875 -1.6875 14.1875 C-1.6875 13.5275 -1.6875 12.8675 -1.6875 12.1875 C-0.0375 12.1875 1.6125 12.1875 3.3125 12.1875 C2.9825 13.8375 2.6525 15.4875 2.3125 17.1875 C-2.3075 17.1875 -6.9275 17.1875 -11.6875 17.1875 C-12.70765917 13.10686334 -12.61908184 11.96514098 -11.4375 8.125 C-11.18484375 7.26777344 -10.9321875 6.41054688 -10.671875 5.52734375 C-8.33725647 -0.02200745 -5.84830969 -0.17371217 0 0 Z " fill="#BEA014" transform="translate(123.6875,10.8125)"/>
<path d="M0 0 C5.61 0 11.22 0 17 0 C16.67 1.65 16.34 3.3 16 5 C14.68 5 13.36 5 12 5 C12 4.34 12 3.68 12 3 C10.35 3 8.7 3 7 3 C7 3.99 7 4.98 7 6 C8.32 6.33 9.64 6.66 11 7 C11 7.66 11 8.32 11 9 C9.02 9 7.04 9 5 9 C5 10.65 5 12.3 5 14 C6.32 14 7.64 14 9 14 C9 13.34 9 12.68 9 12 C10.65 12 12.3 12 14 12 C13.67 13.32 13.34 14.64 13 16 C7.72 16 2.44 16 -3 16 C-3 15.34 -3 14.68 -3 14 C-2.34 14 -1.68 14 -1 14 C-0.86722656 13.37351562 -0.73445313 12.74703125 -0.59765625 12.1015625 C-0.33275391 10.87566406 -0.33275391 10.87566406 -0.0625 9.625 C0.11152344 8.81289063 0.28554687 8.00078125 0.46484375 7.1640625 C1 5 1 5 2 3 C1.34 3 0.68 3 0 3 C0 2.01 0 1.02 0 0 Z " fill="#D7B80D" transform="translate(68,11)"/>
<path d="M0 0 C5.28 0 10.56 0 16 0 C16 1.65 16 3.3 16 5 C15.01 4.67 14.02 4.34 13 4 C12.34 4.66 11.68 5.32 11 6 C11 4.68 11 3.36 11 2 C9.35 2 7.7 2 6 2 C5.67 3.65 5.34 5.3 5 7 C7.97 7.33 10.94 7.66 14 8 C14 9.65 14 11.3 14 13 C12.35 13.33 10.7 13.66 9 14 C8.67 13.01 8.34 12.02 8 11 C8.33 10.34 8.66 9.68 9 9 C7.35 9 5.7 9 4 9 C3.67 11.31 3.34 13.62 3 16 C0.69 16 -1.62 16 -4 16 C-4 15.01 -4 14.02 -4 13 C-3.34 13 -2.68 13 -2 13 C-1.66451233 11.20873548 -1.33167645 9.41697413 -1 7.625 C-0.814375 6.62726562 -0.62875 5.62953125 -0.4375 4.6015625 C0.05527983 2.11096455 0.05527983 2.11096455 0 0 Z " fill="#EAC40E" transform="translate(153,12)"/>
<path d="M0 0 C0.66 0 1.32 0 2 0 C1.34 2.64 0.68 5.28 0 8 C0.66 8 1.32 8 2 8 C2.33 6.68 2.66 5.36 3 4 C6.153368 3.29925156 8.72724974 3 12 3 C11.67 4.65 11.34 6.3 11 8 C12.98 8 14.96 8 17 8 C17 7.01 17 6.02 17 5 C15.68 5.33 14.36 5.66 13 6 C14.3125 4.5 14.3125 4.5 16 3 C16.99 3 17.98 3 19 3 C19.625 5.375 19.625 5.375 20 8 C18 10 18 10 15.84521484 10.22705078 C14.97590332 10.21657715 14.1065918 10.20610352 13.2109375 10.1953125 C12.26992187 10.18886719 11.32890625 10.18242188 10.359375 10.17578125 C9.37453125 10.15902344 8.3896875 10.14226563 7.375 10.125 C6.38242188 10.11597656 5.38984375 10.10695313 4.3671875 10.09765625 C1.91121866 10.07404116 -0.54427168 10.04110799 -3 10 C-3 9.34 -3 8.68 -3 8 C-3.66 8 -4.32 8 -5 8 C-5 7.34 -5 6.68 -5 6 C-5.928125 6.99 -5.928125 6.99 -6.875 8 C-9 10 -9 10 -11 10 C-10.67 7.69 -10.34 5.38 -10 3 C-8.3603125 3.0928125 -8.3603125 3.0928125 -6.6875 3.1875 C-3.08247389 3.37243237 -3.08247389 3.37243237 -1.1875 1.5 C-0.795625 1.005 -0.40375 0.51 0 0 Z " fill="#363012" transform="translate(100,35)"/>
<path d="M0 0 C2 0 2 0 3.625 1.5625 C6.372432 6.43294764 4.91672634 11.72882356 4 17 C4 18.65 4 20.3 4 22 C0.04 22 -3.92 22 -8 22 C-7.34 20.68 -6.68 19.36 -6 18 C-4.35 18 -2.7 18 -1 18 C-1.33 15.69 -1.66 13.38 -2 11 C-6.455 10.01 -6.455 10.01 -11 9 C-10.67 7.35 -10.34 5.7 -10 4 C-8.35 4 -6.7 4 -5 4 C-5 5.65 -5 7.3 -5 9 C-3.68 8.67 -2.36 8.34 -1 8 C-0.67 5.36 -0.34 2.72 0 0 Z " fill="#050504" transform="translate(103,10)"/>
<path d="M0 0 C-0.33 0.66 -0.66 1.32 -1 2 C-1.22278664 3.36972529 -1.4068105 4.74603588 -1.5625 6.125 C-1.706875 7.40375 -1.85125 8.6825 -2 10 C0.64 10 3.28 10 6 10 C5.67 11.32 5.34 12.64 5 14 C3.68 14 2.36 14 1 14 C1 13.34 1 12.68 1 12 C-0.4540625 12.0309375 -0.4540625 12.0309375 -1.9375 12.0625 C-5 12 -5 12 -6 11 C-8.02919843 11.25723969 -8.02919843 11.25723969 -10 12 C-10.33 12.66 -10.66 13.32 -11 14 C-12.65 14 -14.3 14 -16 14 C-15.67 12.35 -15.34 10.7 -15 9 C-13.02 9 -11.04 9 -9 9 C-9 8.34 -9 7.68 -9 7 C-10.65 7 -12.3 7 -14 7 C-13.67 5.68 -13.34 4.36 -13 3 C-11.35 3 -9.7 3 -8 3 C-8 3.66 -8 4.32 -8 5 C-6.68 5 -5.36 5 -4 5 C-3.67 3.68 -3.34 2.36 -3 1 C-11.415 1.495 -11.415 1.495 -20 2 C-20 1.34 -20 0.68 -20 0 C-17.22949974 -0.1946838 -14.45886998 -0.38102792 -11.6875 -0.5625 C-10.90181641 -0.61857422 -10.11613281 -0.67464844 -9.30664062 -0.73242188 C-8.1706543 -0.80493164 -8.1706543 -0.80493164 -7.01171875 -0.87890625 C-6.31522217 -0.9260376 -5.61872559 -0.97316895 -4.90112305 -1.02172852 C-3 -1 -3 -1 0 0 Z " fill="#2E2804" transform="translate(214,11)"/>
<path d="M0 0 C1.5625 1.875 1.5625 1.875 2 4 C1.125 6.25 1.125 6.25 0 8 C-0.66 6.35 -1.32 4.7 -2 3 C-2.66 3 -3.32 3 -4 3 C-4 2.34 -4 1.68 -4 1 C-5.65 1 -7.3 1 -9 1 C-9.12375 1.680625 -9.2475 2.36125 -9.375 3.0625 C-10.09742415 6.4578935 -10.86338705 9.71645149 -12 13 C-12.99 13.33 -13.98 13.66 -15 14 C-16 13 -16 13 -16.0625 10.4375 C-16.041875 9.633125 -16.02125 8.82875 -16 8 C-18.97 7.67 -21.94 7.34 -25 7 C-24.67 5.35 -24.34 3.7 -24 2 C-22.35 2 -20.7 2 -19 2 C-18.67 2.66 -18.34 3.32 -18 4 C-17.34 3.67 -16.68 3.34 -16 3 C-16 3.66 -16 4.32 -16 5 C-15.34 5 -14.68 5 -14 5 C-14 3.35 -14 1.7 -14 0 C-8.62484702 -1.97454599 -5.48607267 -2.36654115 0 0 Z " fill="#141102" transform="translate(183,12)"/>
<path d="M0 0 C1.91635217 -0.05423638 3.83314925 -0.09289963 5.75 -0.125 C7.35101563 -0.15980469 7.35101563 -0.15980469 8.984375 -0.1953125 C11.97600071 -0.00155436 13.41249619 0.63516283 16 2 C18.00461299 1.34733531 20.00379834 0.67795528 22 0 C26.74970057 -0.43918464 29.95382184 -0.69745211 34 2 C28.72 2 23.44 2 18 2 C18.33 3.32 18.66 4.64 19 6 C18.44140625 8.359375 18.44140625 8.359375 17.5625 10.75 C17.13130859 11.94882812 17.13130859 11.94882812 16.69140625 13.171875 C16.46324219 13.77515625 16.23507813 14.3784375 16 15 C15.34 15 14.68 15 14 15 C13.67 15.99 13.34 16.98 13 18 C11.85922343 14.57767028 11.90184883 11.91326783 11.9375 8.3125 C11.94652344 7.13300781 11.95554688 5.95351562 11.96484375 4.73828125 C11.97644531 3.83464844 11.98804688 2.93101563 12 2 C8.04 2 4.08 2 0 2 C0 1.34 0 0.68 0 0 Z " fill="#2D2706" transform="translate(135,10)"/>
<path d="M0 0 C-0.3125 2.875 -0.3125 2.875 -1 6 C-1.99 6.66 -2.98 7.32 -4 8 C-4.33 6.68 -4.66 5.36 -5 4 C-6.32 4.33 -7.64 4.66 -9 5 C-9 4.34 -9 3.68 -9 3 C-9.99 3 -10.98 3 -12 3 C-12.33 5.31 -12.66 7.62 -13 10 C-14.98 10 -16.96 10 -19 10 C-18.67 6.7 -18.34 3.4 -18 0 C-12.10985609 -1.52003714 -5.85927818 -1.67407948 0 0 Z " fill="#EECC1C" transform="translate(144,35)"/>
<path d="M0 0 C2.80541099 4.20811648 1.85569482 6.09920241 1 11 C0.67 11.66 0.34 12.32 0 13 C-2.0625 13.625 -2.0625 13.625 -4 14 C-4 13.34 -4 12.68 -4 12 C-5.32 11.67 -6.64 11.34 -8 11 C-8 11.66 -8 12.32 -8 13 C-9.32 13 -10.64 13 -12 13 C-12 11.35 -12 9.7 -12 8 C-10.02 8 -8.04 8 -6 8 C-6 7.34 -6 6.68 -6 6 C-7.65 6 -9.3 6 -11 6 C-10.67 4.68 -10.34 3.36 -10 2 C-8.35 2 -6.7 2 -5 2 C-5 2.66 -5 3.32 -5 4 C-3.68 4 -2.36 4 -1 4 C-0.67 2.68 -0.34 1.36 0 0 Z " fill="#121002" transform="translate(85,12)"/>
<path d="M0 0 C2.31 0 4.62 0 7 0 C7 1.65 7 3.3 7 5 C7.66 5 8.32 5 9 5 C9.33 3.68 9.66 2.36 10 1 C10.99 1.33 11.98 1.66 13 2 C12.67 2.99 12.34 3.98 12 5 C12.721875 4.175 13.44375 3.35 14.1875 2.5 C17 0 17 0 19.8125 -0.3125 C20.534375 -0.209375 21.25625 -0.10625 22 0 C22 0.99 22 1.98 22 3 C20.68 2.67 19.36 2.34 18 2 C18 2.99 18 3.98 18 5 C19.32 5.33 20.64 5.66 22 6 C21 7 21 7 17.18359375 7.09765625 C15.60153318 7.09098089 14.01948841 7.07901875 12.4375 7.0625 C11.63119141 7.05798828 10.82488281 7.05347656 9.99414062 7.04882812 C7.99606244 7.03700518 5.99802217 7.01906914 4 7 C3.67 6.01 3.34 5.02 3 4 C2.54625 4.495 2.0925 4.99 1.625 5.5 C0 7 0 7 -2 7 C-1.34 4.69 -0.68 2.38 0 0 Z " fill="#211F11" transform="translate(56,38)"/>
<path d="M0 0 C-0.33 1.65 -0.66 3.3 -1 5 C-0.34 4.67 0.32 4.34 1 4 C1.33 3.01 1.66 2.02 2 1 C5.465 0.505 5.465 0.505 9 0 C9 1.32 9 2.64 9 4 C8.360625 4.12375 7.72125 4.2475 7.0625 4.375 C6.381875 4.58125 5.70125 4.7875 5 5 C4.67 5.66 4.34 6.32 4 7 C-0.29 7 -4.58 7 -9 7 C-9.33 5.35 -9.66 3.7 -10 2 C-6.3558226 -0.4294516 -4.28758728 -0.16179575 0 0 Z " fill="#524C14" transform="translate(45,38)"/>
<path d="M0 0 C1.27617187 0.02320313 2.55234375 0.04640625 3.8671875 0.0703125 C5.78917969 0.09738281 5.78917969 0.09738281 7.75 0.125 C9.23113281 0.15980469 9.23113281 0.15980469 10.7421875 0.1953125 C10.4121875 1.8453125 10.0821875 3.4953125 9.7421875 5.1953125 C8.0921875 5.1953125 6.4421875 5.1953125 4.7421875 5.1953125 C4.7421875 4.5353125 4.7421875 3.8753125 4.7421875 3.1953125 C3.4221875 3.1953125 2.1021875 3.1953125 0.7421875 3.1953125 C0.4121875 4.5153125 0.0821875 5.8353125 -0.2578125 7.1953125 C2.3821875 7.1953125 5.0221875 7.1953125 7.7421875 7.1953125 C7.7421875 7.5253125 7.7421875 7.8553125 7.7421875 8.1953125 C5.76309352 8.22217803 3.78389779 8.24164625 1.8046875 8.2578125 C0.70253906 8.26941406 -0.39960938 8.28101563 -1.53515625 8.29296875 C-4.2578125 8.1953125 -4.2578125 8.1953125 -5.2578125 7.1953125 C-5.4453125 4.7578125 -5.4453125 4.7578125 -5.2578125 2.1953125 C-3.2578125 0.1953125 -3.2578125 0.1953125 0 0 Z " fill="#BFA310" transform="translate(217.2578125,10.8046875)"/>
<path d="M0 0 C1.48831242 0.00667405 2.97660807 0.01863442 4.46484375 0.03515625 C5.22345703 0.03966797 5.98207031 0.04417969 6.76367188 0.04882812 C8.64326246 0.06064945 10.52281274 0.07858547 12.40234375 0.09765625 C12.07234375 1.41765625 11.74234375 2.73765625 11.40234375 4.09765625 C10.08234375 4.09765625 8.76234375 4.09765625 7.40234375 4.09765625 C7.40234375 3.43765625 7.40234375 2.77765625 7.40234375 2.09765625 C5.75234375 2.09765625 4.10234375 2.09765625 2.40234375 2.09765625 C2.07234375 3.41765625 1.74234375 4.73765625 1.40234375 6.09765625 C3.05234375 6.09765625 4.70234375 6.09765625 6.40234375 6.09765625 C6.40234375 6.75765625 6.40234375 7.41765625 6.40234375 8.09765625 C4.42234375 8.09765625 2.44234375 8.09765625 0.40234375 8.09765625 C0.07234375 9.08765625 -0.25765625 10.07765625 -0.59765625 11.09765625 C-0.59765625 10.10765625 -0.59765625 9.11765625 -0.59765625 8.09765625 C-1.91765625 7.76765625 -3.23765625 7.43765625 -4.59765625 7.09765625 C-4.64019981 5.09810879 -4.63846408 3.09723989 -4.59765625 1.09765625 C-3.59765625 0.09765625 -3.59765625 0.09765625 0 0 Z " fill="#ECC90E" transform="translate(198.59765625,11.90234375)"/>
<path d="M0 0 C0.52213861 2.05834806 1.02094884 4.10474419 1.4375 6.1875 C1.623125 6.785625 1.80875 7.38375 2 8 C2.66 8.33 3.32 8.66 4 9 C4 9.66 4 10.32 4 11 C5.32 11 6.64 11 8 11 C8 10.34 8 9.68 8 9 C9.65 9 11.3 9 13 9 C12.67 10.65 12.34 12.3 12 14 C7.38 14 2.76 14 -2 14 C-3.04692525 9.81229899 -2.85469996 8.67828787 -1.5625 4.75 C-1.27503906 3.85796875 -0.98757812 2.9659375 -0.69140625 2.046875 C-0.46324219 1.37140625 -0.23507813 0.6959375 0 0 Z " fill="#AA8D09" transform="translate(114,14)"/>
<path d="M0 0 C3.96 0 7.92 0 12 0 C12.33 0.99 12.66 1.98 13 3 C12.34 4.32 11.68 5.64 11 7 C6.38 7 1.76 7 -3 7 C-2.67 5.68 -2.34 4.36 -2 3 C-0.35 3 1.3 3 3 3 C3 3.66 3 4.32 3 5 C4.32 5 5.64 5 7 5 C7 3.68 7 2.36 7 1 C4.69 1 2.38 1 0 1 C0 0.67 0 0.34 0 0 Z " fill="#E2BE0D" transform="translate(12,20)"/>
<path d="M0 0 C2.64 0 5.28 0 8 0 C7.67 1.65 7.34 3.3 7 5 C8.98 5 10.96 5 13 5 C13 4.01 13 3.02 13 2 C11.68 2.33 10.36 2.66 9 3 C10.3125 1.5 10.3125 1.5 12 0 C12.99 0 13.98 0 15 0 C15.625 2.375 15.625 2.375 16 5 C14 7 14 7 11.6171875 7.1953125 C10.71226563 7.17210937 9.80734375 7.14890625 8.875 7.125 C7.50988281 7.09792969 7.50988281 7.09792969 6.1171875 7.0703125 C5.41851562 7.04710937 4.71984375 7.02390625 4 7 C3.67 6.01 3.34 5.02 3 4 C3.33 3.34 3.66 2.68 4 2 C2.68 2.99 1.36 3.98 0 5 C-0.66 4.67 -1.32 4.34 -2 4 C-1.34 2.68 -0.68 1.36 0 0 Z " fill="#2E2A12" transform="translate(104,38)"/>
<path d="M0 0 C0.99 0 1.98 0 3 0 C3.66 0.66 4.32 1.32 5 2 C4.69347955 4.9425963 4.32728846 7.34542308 3 10 C-1.62 10 -6.24 10 -11 10 C-10.67 9.01 -10.34 8.02 -10 7 C-7.03 7 -4.06 7 -1 7 C-0.67 4.69 -0.34 2.38 0 0 Z " fill="#EDCC0E" transform="translate(172,18)"/>
<path d="M0 0 C2.31 0 4.62 0 7 0 C7.93423645 3.01031744 8.04449911 3.86650268 7 7 C7.27571139 9.00875442 7.60235737 11.01178687 8 13 C9.32 13 10.64 13 12 13 C12.33 12.34 12.66 11.68 13 11 C13 11.99 13 12.98 13 14 C11.02 14 9.04 14 7 14 C6.0234375 12.20963542 5.046875 10.41927083 4.0703125 8.62890625 C3.08589976 6.83381685 3.08589976 6.83381685 1 6 C0.34 6.66 -0.32 7.32 -1 8 C-0.67 5.36 -0.34 2.72 0 0 Z " fill="#F6D10E" transform="translate(174,13)"/>
<path d="M0 0 C4.29 0 8.58 0 13 0 C12.125 6.875 12.125 6.875 11 8 C9.31391034 8.07205511 7.62499341 8.08386068 5.9375 8.0625 C5.01839844 8.05347656 4.09929688 8.04445313 3.15234375 8.03515625 C2.44207031 8.02355469 1.73179688 8.01195312 1 8 C1 7.67 1 7.34 1 7 C2.98 7 4.96 7 7 7 C7 5.35 7 3.7 7 2 C4.69 1.67 2.38 1.34 0 1 C0 0.67 0 0.34 0 0 Z " fill="#F5D40D" transform="translate(54,12)"/>
<path d="M0 0 C-0.99 4.29 -1.98 8.58 -3 13 C-4.32 13 -5.64 13 -7 13 C-6.68991116 11.39536551 -6.37683713 9.79130769 -6.0625 8.1875 C-5.88847656 7.29417969 -5.71445312 6.40085937 -5.53515625 5.48046875 C-5 3 -5 3 -4 0 C-6.64 0 -9.28 0 -12 0 C-12 -0.33 -12 -0.66 -12 -1 C-4.5 -2.25 -4.5 -2.25 0 0 Z " fill="#0E0C00" transform="translate(41,12)"/>
<path d="M0 0 C-0.33 1.32 -0.66 2.64 -1 4 C-1.66 4 -2.32 4 -3 4 C-3 3.34 -3 2.68 -3 2 C-4.98 2.99 -4.98 2.99 -7 4 C-7 4.99 -7 5.98 -7 7 C-5.02 7 -3.04 7 -1 7 C-1 7.66 -1 8.32 -1 9 C-3.76250036 10.38125018 -5.94731099 10.19079306 -9 10 C-11 8 -11 8 -11.375 5.5625 C-11 3 -11 3 -9.4375 1.1875 C-6.19571384 -0.39183172 -3.55711122 -0.20521796 0 0 Z " fill="#1C1A11" transform="translate(35,35)"/>
<path d="M0 0 C1.98 0.66 3.96 1.32 6 2 C5.67 4.64 5.34 7.28 5 10 C0.25 9.25 0.25 9.25 -2 7 C-2 3.89448334 -1.4606285 2.64738916 0 0 Z " fill="#A38B09" transform="translate(136,12)"/>
<path d="M0 0 C5.28 0 10.56 0 16 0 C16 1.65 16 3.3 16 5 C15.01 4.67 14.02 4.34 13 4 C12.34 4.66 11.68 5.32 11 6 C11 4.68 11 3.36 11 2 C9.35 2 7.7 2 6 2 C5.34 3.32 4.68 4.64 4 6 C3.67 5.34 3.34 4.68 3 4 C2.34 4.66 1.68 5.32 1 6 C0.67 4.02 0.34 2.04 0 0 Z " fill="#FEE80A" transform="translate(153,12)"/>
<path d="M0 0 C6.75 0.875 6.75 0.875 9 2 C9.40729228 4.32156597 9.74438677 6.6568787 10 9 C7.69 9 5.38 9 3 9 C1.7922442 5.37673261 2.45688872 4.35853631 4 1 C2.68 0.67 1.36 0.34 0 0 Z " fill="#EECF0E" transform="translate(92,19)"/>
<path d="M0 0 C0.99 0.33 1.98 0.66 3 1 C2.01 2.32 1.02 3.64 0 5 C1.98 3.35 3.96 1.7 6 0 C5.39779006 6.38342541 5.39779006 6.38342541 3.75 8.9375 C1.41628148 10.35440053 -0.32136078 10.21718696 -3 10 C-3 9.34 -3 8.68 -3 8 C-1.68 7.67 -0.36 7.34 1 7 C-0.32 7 -1.64 7 -3 7 C-3.1875 4.625 -3.1875 4.625 -3 2 C-2.01 1.34 -1.02 0.68 0 0 Z " fill="#282411" transform="translate(162,38)"/>
<path d="M0 0 C0.33 1.32 0.66 2.64 1 4 C1.66 4 2.32 4 3 4 C3 5.65 3 7.3 3 9 C5.64 9 8.28 9 11 9 C10.34 8.67 9.68 8.34 9 8 C9 7.34 9 6.68 9 6 C10.32 6.33 11.64 6.66 13 7 C12.67 7.99 12.34 8.98 12 10 C6.72 10 1.44 10 -4 10 C-4 9.34 -4 8.68 -4 8 C-3.34 8 -2.68 8 -2 8 C-1.7834375 6.576875 -1.7834375 6.576875 -1.5625 5.125 C-1 2 -1 2 0 0 Z " fill="#FBDD0E" transform="translate(69,17)"/>
<path d="M0 0 C2.4375 0.1875 2.4375 0.1875 5 1 C6.3125 3.0625 6.3125 3.0625 7 5 C4.0625 4.625 4.0625 4.625 1 4 C0.67 3.34 0.34 2.68 0 2 C0 2.99 0 3.98 0 5 C1.65 5 3.3 5 5 5 C4.67 5.66 4.34 6.32 4 7 C-0.29 7 -4.58 7 -9 7 C-8.34 6.67 -7.68 6.34 -7 6 C-6.67 5.01 -6.34 4.02 -6 3 C-6 3.66 -6 4.32 -6 5 C-5.01 5 -4.02 5 -3 5 C-2.690625 4.360625 -2.38125 3.72125 -2.0625 3.0625 C-1 1 -1 1 0 0 Z " fill="#312C12" transform="translate(152,38)"/>
<path d="M0 0 C2.31 0 4.62 0 7 0 C7 1.65 7 3.3 7 5 C7.66 5 8.32 5 9 5 C9.33 4.01 9.66 3.02 10 2 C10 3.32 10 4.64 10 6 C8.02 6.33 6.04 6.66 4 7 C3.67 6.01 3.34 5.02 3 4 C2.54625 4.495 2.0925 4.99 1.625 5.5 C0 7 0 7 -2 7 C-1.34 4.69 -0.68 2.38 0 0 Z " fill="#373212" transform="translate(56,38)"/>
<path d="M0 0 C2.50357861 0.8345262 4.66785852 1.79371992 7 3 C7 3.66 7 4.32 7 5 C8.65 4.67 10.3 4.34 12 4 C11.67 4.99 11.34 5.98 11 7 C9.35 6.67 7.7 6.34 6 6 C6 6.66 6 7.32 6 8 C2.7 7.67 -0.6 7.34 -4 7 C-3.67 6.34 -3.34 5.68 -3 5 C-0.67843403 4.59270772 1.6568787 4.25561323 4 4 C2.68 3.67 1.36 3.34 0 3 C0 2.01 0 1.02 0 0 Z " fill="#EED31E" transform="translate(152,40)"/>
<path d="M0 0 C0.66 0 1.32 0 2 0 C2 0.66 2 1.32 2 2 C2.66 2 3.32 2 4 2 C4 2.66 4 3.32 4 4 C5.98 3.67 7.96 3.34 10 3 C10 3.66 10 4.32 10 5 C10.66 5.33 11.32 5.66 12 6 C7.05 6 2.1 6 -3 6 C-2.01 4.02 -1.02 2.04 0 0 Z " fill="#F5D01C" transform="translate(93,41)"/>
<path d="M0 0 C0.763125 0.20625 1.52625 0.4125 2.3125 0.625 C2.6425 1.615 2.9725 2.605 3.3125 3.625 C1.6625 3.625 0.0125 3.625 -1.6875 3.625 C-2.0175 2.965 -2.3475 2.305 -2.6875 1.625 C-2.6875 2.615 -2.6875 3.605 -2.6875 4.625 C-1.0375 4.625 0.6125 4.625 2.3125 4.625 C1.9825 5.285 1.6525 5.945 1.3125 6.625 C-0.6675 6.625 -2.6475 6.625 -4.6875 6.625 C-5.0175 4.975 -5.3475 3.325 -5.6875 1.625 C-2.6875 -0.375 -2.6875 -0.375 0 0 Z " fill="#2E2911" transform="translate(84.6875,38.375)"/>
<path d="M0 0 C0.33 1.32 0.66 2.64 1 4 C-2.20380017 6.13586678 -3.01939967 6.23132175 -6.6875 6.125 C-7.89986328 6.09792969 -7.89986328 6.09792969 -9.13671875 6.0703125 C-10.05904297 6.03550781 -10.05904297 6.03550781 -11 6 C-9 4 -9 4 -5.375 3.875 C-3.704375 3.936875 -3.704375 3.936875 -2 4 C-2.66 3.34 -3.32 2.68 -4 2 C-4.99 2.33 -5.98 2.66 -7 3 C-6.67 2.01 -6.34 1.02 -6 0 C-3.50907189 -1.24546405 -2.58919267 -0.7767578 0 0 Z " fill="#2F2B12" transform="translate(216,39)"/>
<path d="M0 0 C1.5625 1.875 1.5625 1.875 2 4 C1.125 6.25 1.125 6.25 0 8 C-0.66 6.35 -1.32 4.7 -2 3 C-2.66 3 -3.32 3 -4 3 C-4 2.34 -4 1.68 -4 1 C-6.31 1.33 -8.62 1.66 -11 2 C-11 1.01 -11 0.02 -11 -1 C-6.98417068 -2.60633173 -3.91324696 -1.52181826 0 0 Z " fill="#CDB611" transform="translate(183,12)"/>
<path d="M0 0 C1.65 0 3.3 0 5 0 C5.33 0.66 5.66 1.32 6 2 C6.66 1.67 7.32 1.34 8 1 C8.33 2.32 8.66 3.64 9 5 C5.42355152 6.2380014 2.66305234 5.74926071 -1 5 C-0.67 3.35 -0.34 1.7 0 0 Z " fill="#C7A90B" transform="translate(159,14)"/>
<path d="M0 0 C0.99 0 1.98 0 3 0 C3 1.65 3 3.3 3 5 C3.99 5.33 4.98 5.66 6 6 C5 7 5 7 2.93359375 7.09765625 C2.10988281 7.08605469 1.28617188 7.07445312 0.4375 7.0625 C-0.38878906 7.05347656 -1.21507812 7.04445313 -2.06640625 7.03515625 C-2.70449219 7.02355469 -3.34257813 7.01195312 -4 7 C-4 6.34 -4 5.68 -4 5 C-3.34 4.67 -2.68 4.34 -2 4 C-0.86649466 1.98330173 -0.86649466 1.98330173 0 0 Z " fill="#FAD90E" transform="translate(50,20)"/>
<path d="M0 0 C2.31 0 4.62 0 7 0 C7 1.32 7 2.64 7 4 C6.01 4 5.02 4 4 4 C3.67 6.31 3.34 8.62 3 11 C1.95550089 7.86650268 2.06576355 7.01031744 3 4 C1.68 4 0.36 4 -1 4 C-0.67 2.68 -0.34 1.36 0 0 Z " fill="#BDA20C" transform="translate(186,11)"/>
<path d="M0 0 C2.97 0.33 5.94 0.66 9 1 C9 2.65 9 4.3 9 6 C7.35 6.33 5.7 6.66 4 7 C3 4 3 4 4 1 C2.68 0.67 1.36 0.34 0 0 Z " fill="#F4D30E" transform="translate(158,19)"/>
<path d="M0 0 C3.11257569 0 5.10765685 0.17361624 8 1 C5.94766315 3.2477975 4.99332739 4.0022242 2 5 C1.67 5.66 1.34 6.32 1 7 C0.01 7 -0.98 7 -2 7 C-1.125 1.125 -1.125 1.125 0 0 Z " fill="#2F2B12" transform="translate(171,38)"/>
<path d="M0 0 C0.66 0 1.32 0 2 0 C1.67 1.98 1.34 3.96 1 6 C-1.31 6.66 -3.62 7.32 -6 8 C-6 6.35 -6 4.7 -6 3 C-4.35 3 -2.7 3 -1 3 C-0.67 2.01 -0.34 1.02 0 0 Z " fill="#4A4614" transform="translate(196,35)"/>
<path d="M0 0 C1.65 0 3.3 0 5 0 C4.34 3.3 3.68 6.6 3 10 C1.68 10 0.36 10 -1 10 C-0.67 6.7 -0.34 3.4 0 0 Z " fill="#1F1D11" transform="translate(126,35)"/>
<path d="M0 0 C3.96 0 7.92 0 12 0 C11.67 1.32 11.34 2.64 11 4 C9.35 4 7.7 4 6 4 C6 3.34 6 2.68 6 2 C4.35 2.33 2.7 2.66 1 3 C0.67 2.01 0.34 1.02 0 0 Z " fill="#F4D10D" transform="translate(118,12)"/>
<path d="M0 0 C0.82242188 0.05220703 1.64484375 0.10441406 2.4921875 0.15820312 C4.49522899 0.28630462 6.49768871 0.42345061 8.5 0.5625 C8.5 0.8925 8.5 1.2225 8.5 1.5625 C2.89 1.5625 -2.72 1.5625 -8.5 1.5625 C-8.17 2.5525 -7.84 3.5425 -7.5 4.5625 C-8.49 4.2325 -9.48 3.9025 -10.5 3.5625 C-10.5 2.9025 -10.5 2.2425 -10.5 1.5625 C-12.81 1.8925 -15.12 2.2225 -17.5 2.5625 C-17.5 1.9025 -17.5 1.2425 -17.5 0.5625 C-11.52842601 -0.36199827 -6.01758541 -0.4263273 0 0 Z " fill="#7B6A10" transform="translate(58.5,10.4375)"/>
<path d="M0 0 C3.3 0.33 6.6 0.66 10 1 C10 2.32 10 3.64 10 5 C8.68 5 7.36 5 6 5 C6 4.34 6 3.68 6 3 C4.02 3.33 2.04 3.66 0 4 C0 2.68 0 1.36 0 0 Z " fill="#0F0D02" transform="translate(9,20)"/>
<path d="M0 0 C1.65 0 3.3 0 5 0 C5 1.65 5 3.3 5 5 C5.99 5 6.98 5 8 5 C8 5.66 8 6.32 8 7 C3.545 6.01 3.545 6.01 -1 5 C-0.67 3.35 -0.34 1.7 0 0 Z " fill="#605105" transform="translate(93,14)"/>
<path d="M0 0 C1.65 0 3.3 0 5 0 C4.67 1.32 4.34 2.64 4 4 C-0.29 4 -4.58 4 -9 4 C-9 3.67 -9 3.34 -9 3 C-4.545 2.505 -4.545 2.505 0 2 C0 1.34 0 0.68 0 0 Z " fill="#F2D90D" transform="translate(122,23)"/>
<path d="M0 0 C1 3 1 3 0.0625 5.1875 C-0.4634375 6.0846875 -0.4634375 6.0846875 -1 7 C-2.32 7 -3.64 7 -5 7 C-5 5.02 -5 3.04 -5 1 C-3.35 0.67 -1.7 0.34 0 0 Z " fill="#ECC90D" transform="translate(103,12)"/>
<path d="M0 0 C3.63 0 7.26 0 11 0 C11 1.32 11 2.64 11 4 C9.35 4 7.7 4 6 4 C6 3.34 6 2.68 6 2 C4.35 2 2.7 2 1 2 C0.67 1.34 0.34 0.68 0 0 Z " fill="#F6D60D" transform="translate(216,12)"/>
<path d="M0 0 C4.29 0 8.58 0 13 0 C13 1.32 13 2.64 13 4 C11.68 4 10.36 4 9 4 C9 3.34 9 2.68 9 2 C6.03 1.67 3.06 1.34 0 1 C0 0.67 0 0.34 0 0 Z " fill="#FBDA0D" transform="translate(71,12)"/>
<path d="M0 0 C5.28 0 10.56 0 16 0 C15.67 1.32 15.34 2.64 15 4 C13.68 3.67 12.36 3.34 11 3 C11.33 2.34 11.66 1.68 12 1 C5.565 1.495 5.565 1.495 -1 2 C-0.67 1.34 -0.34 0.68 0 0 Z " fill="#F9DA0C" transform="translate(195,12)"/>
<path d="M0 0 C0.99 0 1.98 0 3 0 C3.1953125 6.0546875 3.1953125 6.0546875 3 8 C2.34 8.66 1.68 9.32 1 10 C0.34 9.34 -0.32 8.68 -1 8 C-0.96712417 5.27130593 -0.43602229 2.7033382 0 0 Z " fill="#FDD70E" transform="translate(115,15)"/>
<path d="M0 0 C3.3 0 6.6 0 10 0 C9.67 1.32 9.34 2.64 9 4 C7.68 4 6.36 4 5 4 C5 3.34 5 2.68 5 2 C3.35 1.67 1.7 1.34 0 1 C0 0.67 0 0.34 0 0 Z " fill="#F9DA0D" transform="translate(17,12)"/>
<path d="M0 0 C0.33 1.32 0.66 2.64 1 4 C0.360625 4.12375 -0.27875 4.2475 -0.9375 4.375 C-1.9584375 4.684375 -1.9584375 4.684375 -3 5 C-3.33 5.66 -3.66 6.32 -4 7 C-4.66 7 -5.32 7 -6 7 C-6 5.02 -6 3.04 -6 1 C-4.02 0.67 -2.04 0.34 0 0 Z " fill="#191710" transform="translate(53,38)"/>
<path d="M0 0 C2.97 0 5.94 0 9 0 C8.67 1.32 8.34 2.64 8 4 C6.68 4 5.36 4 4 4 C4 3.34 4 2.68 4 2 C2.35 2 0.7 2 -1 2 C-0.67 1.34 -0.34 0.68 0 0 Z " fill="#141104" transform="translate(211,21)"/>
<path d="M0 0 C1.65 0 3.3 0 5 0 C5 0.66 5 1.32 5 2 C6.32 2.33 7.64 2.66 9 3 C7.68 3 6.36 3 5 3 C4.67 3.66 4.34 4.32 4 5 C2.35 4.67 0.7 4.34 -1 4 C-0.67 2.68 -0.34 1.36 0 0 Z " fill="#181502" transform="translate(201,14)"/>
<path d="M0 0 C0.6875 1.6875 0.6875 1.6875 1 4 C-0.14786941 6.24356294 -1.2095767 8.2095767 -3 10 C-4.66617115 10.04063832 -6.33388095 10.042721 -8 10 C-8 9.34 -8 8.68 -8 8 C-6.35 7.67 -4.7 7.34 -3 7 C-2.814375 6.1028125 -2.814375 6.1028125 -2.625 5.1875 C-2 3 -2 3 0 0 Z " fill="#121110" transform="translate(167,38)"/>
<path d="M0 0 C0.99 0 1.98 0 3 0 C3 0.99 3 1.98 3 3 C3.66 3 4.32 3 5 3 C4.67 3.99 4.34 4.98 4 6 C4 5.34 4 4.68 4 4 C3.34 4 2.68 4 2 4 C1.67 4.99 1.34 5.98 1 7 C0.34 7 -0.32 7 -1 7 C-0.67 4.69 -0.34 2.38 0 0 Z " fill="#383212" transform="translate(132,38)"/>
<path d="M0 0 C0 1.32 0 2.64 0 4 C-7.42857143 5.28571429 -7.42857143 5.28571429 -11 4 C-9.88625 3.525625 -8.7725 3.05125 -7.625 2.5625 C-1.68 0 -1.68 0 0 0 Z " fill="#5C5615" transform="translate(108,40)"/>
<path d="M0 0 C2.31 0 4.62 0 7 0 C6.3125 1.9375 6.3125 1.9375 5 4 C2.375 4.75 2.375 4.75 0 5 C0 3.35 0 1.7 0 0 Z " fill="#665E15" transform="translate(201,38)"/>
<path d="M0 0 C0.99 0 1.98 0 3 0 C3 0.66 3 1.32 3 2 C3.66 2 4.32 2 5 2 C5.33 1.34 5.66 0.68 6 0 C6.33 0.99 6.66 1.98 7 3 C4.03 3.66 1.06 4.32 -2 5 C-1 1 -1 1 0 0 Z " fill="#DBBF1B" transform="translate(29,37)"/>
<path d="M0 0 C0.5625 1.9375 0.5625 1.9375 1 4 C0 5 0 5 -3.16015625 5.09765625 C-5.09181641 5.08025391 -5.09181641 5.08025391 -7.0625 5.0625 C-8.35285156 5.05347656 -9.64320312 5.04445313 -10.97265625 5.03515625 C-11.97167969 5.02355469 -12.97070312 5.01195312 -14 5 C-13.34 4.67 -12.68 4.34 -12 4 C-12 3.34 -12 2.68 -12 2 C-11.01 2 -10.02 2 -9 2 C-9 2.66 -9 3.32 -9 4 C-6.36 3.67 -3.72 3.34 -1 3 C-0.67 2.01 -0.34 1.02 0 0 Z " fill="#FEE50F" transform="translate(23,22)"/>
<path d="M0 0 C1.32 0 2.64 0 4 0 C4 0.66 4 1.32 4 2 C5.32 2.33 6.64 2.66 8 3 C7 4 7 4 5.15234375 4.09765625 C3.1015625 4.06510417 1.05078125 4.03255208 -1 4 C-0.67 2.68 -0.34 1.36 0 0 Z " fill="#140F01" transform="translate(218,14)"/>
<path d="M0 0 C5.19209404 -0.21192221 9.126739 0.4087311 14 2 C14 2.33 14 2.66 14 3 C9.38 3 4.76 3 0 3 C0 2.01 0 1.02 0 0 Z " fill="#BCA609" transform="translate(161,25)"/>
<path d="M0 0 C1.4540625 0.0309375 1.4540625 0.0309375 2.9375 0.0625 C2.9375 1.0525 2.9375 2.0425 2.9375 3.0625 C2.2775 3.0625 1.6175 3.0625 0.9375 3.0625 C0.6075 3.7225 0.2775 4.3825 -0.0625 5.0625 C-0.7225 4.4025 -1.3825 3.7425 -2.0625 3.0625 C-2.7225 3.0625 -3.3825 3.0625 -4.0625 3.0625 C-4.3925 3.7225 -4.7225 4.3825 -5.0625 5.0625 C-3.9375 0.08035714 -3.9375 0.08035714 0 0 Z " fill="#E1C40D" transform="translate(45.0625,11.9375)"/>
<path d="M0 0 C0.66 0 1.32 0 2 0 C2.33 2.31 2.66 4.62 3 7 C2.01 7.33 1.02 7.66 0 8 C0 7.01 0 6.02 0 5 C-0.66 4.67 -1.32 4.34 -2 4 C-1.34 2.68 -0.68 1.36 0 0 Z " fill="#A39318" transform="translate(68,35)"/>
<path d="M0 0 C2.0625 0.4375 2.0625 0.4375 4 1 C3.01 2.485 3.01 2.485 2 4 C2.66 4.33 3.32 4.66 4 5 C2.68 5.33 1.36 5.66 0 6 C-0.38218767 4.34385343 -0.71395102 2.67542976 -1 1 C-0.67 0.67 -0.34 0.34 0 0 Z " fill="#1C1A11" transform="translate(36,39)"/>
<path d="M0 0 C1.32 0 2.64 0 4 0 C4 0.66 4 1.32 4 2 C6.97 2 9.94 2 13 2 C13 2.33 13 2.66 13 3 C8.38 3 3.76 3 -1 3 C-0.67 2.01 -0.34 1.02 0 0 Z " fill="#FDE710" transform="translate(210,24)"/>
<path d="M0 0 C1.98 0 3.96 0 6 0 C5.01 0.495 5.01 0.495 4 1 C4 2.32 4 3.64 4 5 C2.68 5 1.36 5 0 5 C0 3.35 0 1.7 0 0 Z " fill="#1F1C03" transform="translate(73,20)"/>
<path d="M0 0 C0.33 1.65 0.66 3.3 1 5 C0.01 5.33 -0.98 5.66 -2 6 C-2 4.68 -2 3.36 -2 2 C-3.32 2.33 -4.64 2.66 -6 3 C-3.375 0 -3.375 0 0 0 Z " fill="#151410" transform="translate(119,38)"/>
<path d="M0 0 C0.99 0.33 1.98 0.66 3 1 C2.67 3.31 2.34 5.62 2 8 C1.01 7.34 0.02 6.68 -1 6 C-1.25 3.4375 -1.25 3.4375 -1 1 C-0.67 0.67 -0.34 0.34 0 0 Z " fill="#FCD90E" transform="translate(186,14)"/>
<path d="M0 0 C0.66 0.66 1.32 1.32 2 2 C1.67 2.99 1.34 3.98 1 5 C0.01 5 -0.98 5 -2 5 C-2.66 6.32 -3.32 7.64 -4 9 C-4.33 7.68 -4.66 6.36 -5 5 C-4.01 4.34 -3.02 3.68 -2 3 C-1.34 3.33 -0.68 3.66 0 4 C0 2.68 0 1.36 0 0 Z " fill="#D9BE1C" transform="translate(54,38)"/>
<path d="M0 0 C1.67542976 0.28604898 3.34385343 0.61781233 5 1 C3.71937515 2.7074998 2.38232443 4.37373596 1 6 C0.34 6 -0.32 6 -1 6 C-1.042721 4.33388095 -1.04063832 2.66617115 -1 1 C-0.67 0.67 -0.34 0.34 0 0 Z " fill="#171510" transform="translate(90,39)"/>
<path d="M0 0 C0 1.65 0 3.3 0 5 C-0.99 4.67 -1.98 4.34 -3 4 C-3.66 4.66 -4.32 5.32 -5 6 C-5.33 4.35 -5.66 2.7 -6 1 C-1.125 0 -1.125 0 0 0 Z " fill="#F1D00E" transform="translate(169,12)"/>
<path d="M0 0 C2.31 0 4.62 0 7 0 C7 0.99 7 1.98 7 3 C4.36 3 1.72 3 -1 3 C-0.67 2.01 -0.34 1.02 0 0 Z " fill="#F5D21D" transform="translate(202,44)"/>
<path d="M0 0 C2.31 0 4.62 0 7 0 C7.33 1.32 7.66 2.64 8 4 C7.01 4.33 6.02 4.66 5 5 C5 4.01 5 3.02 5 2 C3.35 1.67 1.7 1.34 0 1 C0 0.67 0 0.34 0 0 Z " fill="#5C5415" transform="translate(90,38)"/>
<path d="M0 0 C0.33 0 0.66 0 1 0 C1 1.65 1 3.3 1 5 C-1.31 5 -3.62 5 -6 5 C-6 4.01 -6 3.02 -6 2 C-3.03 2.495 -3.03 2.495 0 3 C0 2.01 0 1.02 0 0 Z " fill="#D3BF0B" transform="translate(155,23)"/>
<path d="M0 0 C2.0625 1.6875 2.0625 1.6875 4 4 C3.75 6.75 3.75 6.75 3 9 C0.53721199 6.53721199 0.00228745 4.29323018 -1 1 C-0.67 0.67 -0.34 0.34 0 0 Z " fill="#0A0903" transform="translate(181,11)"/>
<path d="M0 0 C0.66 0.66 1.32 1.32 2 2 C1.01 3.485 1.01 3.485 0 5 C-1.9453125 5.29296875 -1.9453125 5.29296875 -4.125 5.1875 C-5.40375 5.125625 -6.6825 5.06375 -8 5 C-5.66785852 3.79371992 -3.50357861 2.8345262 -1 2 C-0.67 1.34 -0.34 0.68 0 0 Z " fill="#E8C51B" transform="translate(78,42)"/>
<path d="M0 0 C0.99 0.33 1.98 0.66 3 1 C2.1875 2.9375 2.1875 2.9375 1 5 C0.01 5.33 -0.98 5.66 -2 6 C-1.34 4.02 -0.68 2.04 0 0 Z " fill="#161510" transform="translate(56,39)"/>
<path d="M0 0 C1.65 0.33 3.3 0.66 5 1 C5 1.99 5 2.98 5 4 C3.02 4 1.04 4 -1 4 C-0.67 2.68 -0.34 1.36 0 0 Z " fill="#E5D31D" transform="translate(112,39)"/>
<path d="M0 0 C2.375 0.25 2.375 0.25 5 1 C6.3125 3.0625 6.3125 3.0625 7 5 C4.03 4.505 4.03 4.505 1 4 C0.67 2.68 0.34 1.36 0 0 Z " fill="#3D3612" transform="translate(152,38)"/>
<path d="M0 0 C1.65 0 3.3 0 5 0 C4.67 0.99 4.34 1.98 4 3 C1.03 3 -1.94 3 -5 3 C-5 2.67 -5 2.34 -5 2 C-3.35 2 -1.7 2 0 2 C0 1.34 0 0.68 0 0 Z " fill="#E7C50F" transform="translate(203,23)"/>
<path d="M0 0 C1.32 0 2.64 0 4 0 C4 1.32 4 2.64 4 4 C2.35 4 0.7 4 -1 4 C-0.67 2.68 -0.34 1.36 0 0 Z " fill="#191603" transform="translate(199,21)"/>
<path d="M0 0 C1.65 0 3.3 0 5 0 C4.67 1.32 4.34 2.64 4 4 C2.68 4 1.36 4 0 4 C0 2.68 0 1.36 0 0 Z " fill="#1D1902" transform="translate(159,14)"/>
<path d="M0 0 C1.65 0 3.3 0 5 0 C4.67 1.65 4.34 3.3 4 5 C3.34 4.34 2.68 3.68 2 3 C1.34 3.66 0.68 4.32 0 5 C0 3.35 0 1.7 0 0 Z " fill="#FCD60D" transform="translate(154,13)"/>
<path d="M0 0 C0.66 0 1.32 0 2 0 C2 2.31 2 4.62 2 7 C1.34 7 0.68 7 0 7 C0 5.68 0 4.36 0 3 C-0.66 2.67 -1.32 2.34 -2 2 C-1.34 1.34 -0.68 0.68 0 0 Z " fill="#0C0B0F" transform="translate(137,38)"/>
<path d="M0 0 C1.32 0 2.64 0 4 0 C3.67 1.32 3.34 2.64 3 4 C1.68 4 0.36 4 -1 4 C-0.67 2.68 -0.34 1.36 0 0 Z " fill="#181401" transform="translate(57,14)"/>
<path d="M0 0 C0.99 0.495 0.99 0.495 2 1 C1.01 1.495 1.01 1.495 0 2 C0 1.34 0 0.68 0 0 Z " fill="#000000" transform="translate(114,11)"/>
<path d="M0 0 C0.99 0.495 0.99 0.495 2 1 C1.01 1.495 1.01 1.495 0 2 C0 1.34 0 0.68 0 0 Z " fill="#000000" transform="translate(184,10)"/>
<path d="" fill="#000000" transform="translate(0,0)"/>
<path d="M0 0 C2 1 2 1 2 1 Z " fill="#000000" transform="translate(130,10)"/>
<path d="M0 0 C2 1 2 1 2 1 Z " fill="#000000" transform="translate(13,10)"/>
<path d="" fill="#000000" transform="translate(0,0)"/>
<path d="" fill="#000000" transform="translate(0,0)"/>
<path d="" fill="#000000" transform="translate(0,0)"/>
<path d="" fill="#000000" transform="translate(0,0)"/>
<path d="" fill="#000000" transform="translate(0,0)"/>
<path d="" fill="#000000" transform="translate(0,0)"/>
<path d="" fill="#000000" transform="translate(0,0)"/>
<path d="" fill="#000000" transform="translate(0,0)"/>
<path d="" fill="#000000" transform="translate(0,0)"/>
<path d="" fill="#000000" transform="translate(0,0)"/>
<path d="" fill="#000000" transform="translate(0,0)"/>
<path d="" fill="#000000" transform="translate(0,0)"/>
<path d="" fill="#000000" transform="translate(0,0)"/>
<path d="" fill="#000000" transform="translate(0,0)"/>
<path d="" fill="#000000" transform="translate(0,0)"/>
<path d="" fill="#000000" transform="translate(0,0)"/>
<path d="" fill="#000000" transform="translate(0,0)"/>
<path d="" fill="#000000" transform="translate(0,0)"/>
</svg>
