<svg width="25" height="25" viewBox="0 0 25 25" fill="none" xmlns="http://www.w3.org/2000/svg">
<g clip-path="url(#clip0_8_24)">
<path d="M5.25 8C2.36475 8 0 10.3575 0 13.235C0 14.35 0.356 15.3863 0.95875 16.238L4.6095 22.549C5.12075 23.217 5.46075 23.0903 5.886 22.514L9.9125 15.6615C9.99375 15.514 10.0575 15.3575 10.1132 15.1975C10.3686 14.5747 10.4999 13.9081 10.5 13.235C10.5 10.3575 8.136 8 5.25 8ZM5.25 10.453C6.804 10.453 8.04 11.6858 8.04 13.2353C8.04 14.7847 6.80375 16.017 5.25 16.017C3.69625 16.017 2.46 14.7845 2.46 13.2353C2.46 11.686 3.6965 10.453 5.25 10.453ZM21.9375 0C20.2545 0 18.875 1.37525 18.875 3.054C18.875 3.70425 19.0825 4.30875 19.4342 4.8055L21.564 8.487C21.8622 8.8765 22.0605 8.8025 22.3085 8.4665L24.6572 4.469C24.7048 4.38325 24.742 4.292 24.7743 4.1985C24.9237 3.83545 25.0004 3.4466 25 3.054C25 1.375 23.621 0 21.9375 0ZM21.9375 1.431C22.844 1.431 23.565 2.15 23.565 3.054C23.565 3.958 22.844 4.6765 21.9375 4.6765C21.031 4.6765 20.31 3.95775 20.31 3.054C20.31 2.15025 21.0312 1.431 21.9375 1.431Z" fill="#F7DA24"/>
<path fill-rule="evenodd" clip-rule="evenodd" d="M22.0523 9.353C21.4905 9.3655 20.9273 9.38925 20.363 9.431L20.45 10.814C20.992 10.7747 21.5349 10.7495 22.0783 10.7382L22.0523 9.353ZM19.0585 9.558C18.191 9.66575 17.316 9.81925 16.451 10.066L16.7768 11.4062C17.5628 11.1823 18.3773 11.0375 19.2045 10.9347L19.0585 9.558ZM15.1558 10.53C14.8966 10.6444 14.6456 10.7766 14.4048 10.9257L14.4038 10.927L14.4023 10.9275C14.0585 11.144 13.6963 11.4187 13.4005 11.818C13.1863 12.1072 13.011 12.473 12.97 12.9055L14.2438 13.0468C14.2533 12.9453 14.3053 12.8113 14.3988 12.6853H14.3993V12.6847C14.55 12.4807 14.776 12.2955 15.0448 12.126L15.0458 12.1255C15.2375 12.0075 15.4369 11.9026 15.6428 11.8115L15.1558 10.53ZM14.5 13.6637L13.6743 14.7225C13.87 14.9015 14.0753 15.039 14.2735 15.154L14.276 15.1552L14.2785 15.1567C14.9365 15.531 15.615 15.7422 16.244 15.9427L16.6055 14.6132C15.9768 14.4127 15.384 14.2192 14.876 13.9307C14.7305 13.8463 14.603 13.758 14.5 13.6637ZM17.8338 14.9873L17.4808 16.319L17.6478 16.371L17.8528 16.4365C18.5313 16.6573 19.1813 16.893 19.7623 17.2192L20.3518 15.9893C19.6493 15.5945 18.92 15.3365 18.2173 15.108L18.2153 15.1075L18.0048 15.0402L17.8338 14.9873ZM21.5505 16.9123L20.6448 17.8923C20.8588 18.124 21.019 18.4028 21.097 18.6908L21.0975 18.6922L21.098 18.6945C21.191 19.0308 21.1913 19.4263 21.1185 19.8258L22.3745 20.0938C22.477 19.5297 22.4935 18.9105 22.325 18.2992C22.1783 17.7587 21.8983 17.2893 21.5505 16.9123ZM20.68 20.6607C20.5414 20.8067 20.3885 20.9384 20.2235 21.0537H20.223C19.773 21.3702 19.251 21.6087 18.6965 21.8137L19.11 23.1248C19.7165 22.9005 20.3393 22.6255 20.9213 22.216L20.9228 22.2148L20.9235 22.2143C21.1625 22.0468 21.3835 21.8552 21.5833 21.6425L20.68 20.6607ZM17.52 22.183C16.7168 22.399 15.8958 22.5635 15.0648 22.703L15.2608 24.0728C16.116 23.929 16.9748 23.7572 17.8283 23.5278L17.52 22.183ZM13.8145 22.892C12.978 23.0063 12.137 23.0995 11.2935 23.179L11.404 24.5595C12.2605 24.479 13.1185 24.3843 13.9753 24.267L13.8145 22.892ZM10.0258 23.2878C9.1805 23.3548 8.33325 23.4093 7.48525 23.4552L7.54925 24.8393C8.4055 24.793 9.2625 24.7378 10.1193 24.6698L10.0258 23.2878ZM6.211 23.5177C5.70275 23.5415 5.19325 23.561 4.6825 23.579L4.7245 24.9643C5.23845 24.9466 5.75229 24.9261 6.266 24.9028L6.211 23.5177Z" fill="#F7DA24"/>
</g>
<defs>
<clipPath id="clip0_8_24">
<rect width="25" height="25" fill="white"/>
</clipPath>
</defs>
</svg>
